<svg width="24" height="24" viewBox="0 0 24 24" fill="none" xmlns="http://www.w3.org/2000/svg">
<g clip-path="url(#clip0)">
<path d="M18.9502 14.7847C18.4792 13.8028 16.7942 12.4397 15.1662 11.1227C14.2582 10.3887 13.4002 9.69473 12.8532 9.14774C12.7162 9.00974 12.5112 8.96573 12.3302 9.03074C11.9932 9.15276 11.7852 9.24674 11.6212 9.31973C11.3712 9.43171 11.2872 9.46973 10.9502 9.50371C10.8012 9.51871 10.6672 9.59873 10.5842 9.72271C9.8772 10.7797 9.1452 10.6897 8.6562 10.5257C8.5002 10.4737 8.47221 10.4067 8.45721 10.3427C8.35221 9.90374 8.87923 8.88173 9.5622 8.19871C11.1872 6.57271 12.0252 6.1657 13.7952 6.95671C15.8032 7.8547 17.8152 8.55773 17.8352 8.56471C18.0982 8.6557 18.3812 8.5177 18.4722 8.2567C18.5622 7.9957 18.4252 7.7107 18.1642 7.61971C18.1442 7.61273 16.1722 6.92371 14.2042 6.0427C11.9112 5.01768 10.6532 5.69268 8.85617 7.49071C8.17217 8.17471 7.24315 9.5587 7.48315 10.5737C7.58613 11.0057 7.89017 11.3257 8.34213 11.4747C9.47515 11.8487 10.5091 11.4907 11.2791 10.4687C11.5971 10.4197 11.7702 10.3477 12.0301 10.2307C12.1241 10.1887 12.2341 10.1398 12.3801 10.0807C12.9522 10.6177 13.7241 11.2427 14.5371 11.8997C16.0071 13.0887 17.6742 14.4367 18.0492 15.2167C18.2342 15.6017 18.0351 15.8527 17.9001 15.9677C17.7021 16.1377 17.4312 16.1917 17.2842 16.0887C17.1222 15.9777 16.9112 15.9707 16.7442 16.0707C16.5761 16.1707 16.4822 16.3597 16.5032 16.5537C16.5372 16.8717 16.2462 17.0537 16.1202 17.1167C15.8001 17.2787 15.4662 17.2507 15.3411 17.1347C15.2011 17.0047 15.0001 16.9667 14.8221 17.0327C14.6442 17.0997 14.5201 17.2637 14.5021 17.4537C14.4721 17.7817 14.2291 18.0967 13.9121 18.2197C13.7591 18.2777 13.5371 18.3127 13.3381 18.1307C13.2141 18.0187 13.0421 17.9757 12.8811 18.0147C12.7182 18.0547 12.5871 18.1727 12.5301 18.3297C12.5112 18.3797 12.4681 18.4997 12.0001 18.4997C11.6671 18.4997 11.0681 18.2747 10.7751 18.0807C10.4241 17.8497 8.22312 16.2077 6.32215 14.6157C6.05515 14.3907 5.59315 13.9086 5.18515 13.4826C4.82313 13.1046 4.49215 12.7617 4.32213 12.6177C4.10913 12.4377 3.79413 12.4647 3.61713 12.6767C3.43915 12.8877 3.46512 13.2037 3.67615 13.3817C3.83117 13.5127 4.13117 13.8297 4.46215 14.1747C4.90817 14.6406 5.36913 15.1227 5.67917 15.3827C7.54118 16.9417 9.77918 18.6247 10.2252 18.9177C10.5932 19.1597 11.3862 19.4997 12.0002 19.4997C12.4932 19.4997 12.8722 19.3867 13.1352 19.1657C13.4871 19.3027 13.8872 19.3037 14.2722 19.1537C14.7272 18.9777 15.1011 18.6227 15.3132 18.1927C15.7071 18.2767 16.1582 18.2177 16.5681 18.0117C16.9692 17.8097 17.2591 17.5007 17.4031 17.1397C17.8011 17.1607 18.2111 17.0197 18.5501 16.7287C19.1242 16.2377 19.2822 15.4738 18.9502 14.7847Z" fill="#273B61"/>
<path d="M10 6.5H5.50002C5.22402 6.5 5 6.72402 5 7.00002C5 7.27602 5.22402 7.50003 5.50002 7.50003H10C10.276 7.50003 10.5 7.27602 10.5 7.00002C10.5 6.72402 10.276 6.5 10 6.5Z" fill="#273B61"/>
<path d="M20.4151 13.7209C20.2601 13.4919 19.9501 13.4289 19.7211 13.5849L18.2591 14.5669C18.0301 14.7209 17.9691 15.0319 18.1231 15.2609C18.2201 15.4039 18.3781 15.4819 18.5391 15.4819C18.6342 15.4819 18.7311 15.4549 18.8172 15.3969L20.2791 14.4149C20.5081 14.2609 20.5691 13.9499 20.4151 13.7209Z" fill="#273B61"/>
<path d="M17.3112 16.1066C16.9532 15.8246 15.3522 14.1856 14.3622 13.1536C14.1712 12.9536 13.8542 12.9466 13.6552 13.1386C13.4552 13.3297 13.4492 13.6466 13.6402 13.8457C13.8972 14.1136 16.1642 16.4767 16.6912 16.8927C16.7822 16.9647 16.8922 16.9997 17.0002 16.9997C17.1472 16.9997 17.2942 16.9337 17.3942 16.8087C17.5652 16.5926 17.5283 16.2776 17.3112 16.1066Z" fill="#273B61"/>
<path d="M15.3128 17.1097C14.7137 16.6306 13.2088 15.0317 12.8687 14.6617C12.6807 14.4577 12.3657 14.4457 12.1617 14.6317C11.9587 14.8187 11.9447 15.1357 12.1317 15.3387C12.1497 15.3577 13.9457 17.2967 14.6877 17.8907C14.7797 17.9637 14.8907 17.9997 14.9997 17.9997C15.1457 17.9997 15.2917 17.9347 15.3907 17.8127C15.5628 17.5966 15.5278 17.2816 15.3128 17.1097Z" fill="#273B61"/>
<path d="M13.3226 18.117C12.6095 17.516 11.1505 15.963 10.8655 15.6579C10.6765 15.456 10.3595 15.4449 10.1585 15.6339C9.95654 15.8229 9.94651 16.1389 10.1345 16.341C10.5445 16.7799 11.9405 18.26 12.6776 18.882C12.7715 18.9609 12.8855 18.9999 12.9995 18.9999C13.1415 18.9999 13.2836 18.939 13.3826 18.822C13.5605 18.6099 13.5335 18.2949 13.3226 18.117Z" fill="#273B61"/>
<path d="M5.844 5.6367C4.98698 4.82468 1.56 4.56166 0.530016 4.50068C0.388031 4.4937 0.257016 4.54066 0.157031 4.63568C0.057 4.72966 0 4.86166 0 4.99966V13.9997C0 14.2757 0.224016 14.4997 0.500016 14.4997H3.50002C3.71602 14.4997 3.90802 14.3607 3.975 14.1547C4.04798 13.9307 5.77102 8.6427 5.99798 6.04268C6.01102 5.89066 5.955 5.74066 5.844 5.6367ZM3.135 13.4997H0.999984V5.53568C2.607 5.66266 4.341 5.93866 4.971 6.24466C4.70602 8.43466 3.507 12.3257 3.135 13.4997Z" fill="#273B61"/>
<path d="M23.4998 5.5C19.5738 5.5 17.3958 6.505 17.3048 6.547C17.1748 6.60798 17.0777 6.721 17.0378 6.85802C16.9978 6.99503 17.0177 7.14203 17.0927 7.264C17.7108 8.25902 19.6458 13.785 20.0178 15.133C20.0778 15.35 20.2748 15.5 20.4998 15.5H23.4998C23.7758 15.5 23.9998 15.276 23.9998 15V5.99997C23.9998 5.72298 23.7758 5.5 23.4998 5.5ZM22.9998 14.5H20.8738C20.3998 12.956 18.9998 8.92998 18.2188 7.26602C18.9818 7.00703 20.6208 6.562 22.9998 6.50603V14.5Z" fill="#273B61"/>
</g>
<defs>
<clipPath id="clip0">
<rect width="24" height="24" fill="white"/>
</clipPath>
</defs>
</svg>
