<svg width="16" height="16" viewBox="0 0 16 16" fill="none" xmlns="http://www.w3.org/2000/svg">
<path d="M15.375 11C15.7202 11 16 10.7202 16 10.375V3.75C16 2.3715 14.8785 1.25 13.5 1.25H12.6875V0.625C12.6875 0.279813 12.4077 0 12.0625 0C11.7173 0 11.4375 0.279813 11.4375 0.625V1.25H8.59375V0.625C8.59375 0.279813 8.31394 0 7.96875 0C7.62356 0 7.34375 0.279813 7.34375 0.625V1.25H4.53125V0.625C4.53125 0.279813 4.25144 0 3.90625 0C3.56106 0 3.28125 0.279813 3.28125 0.625V1.25H2.5C1.1215 1.25 0 2.3715 0 3.75V13.5C0 14.8785 1.1215 16 2.5 16H13.5C14.8785 16 16 14.8785 16 13.5C16 13.1548 15.7202 12.875 15.375 12.875C15.0298 12.875 14.75 13.1548 14.75 13.5C14.75 14.1892 14.1892 14.75 13.5 14.75H2.5C1.81075 14.75 1.25 14.1892 1.25 13.5V3.75C1.25 3.06075 1.81075 2.5 2.5 2.5H3.28125V3.125C3.28125 3.47019 3.56106 3.75 3.90625 3.75C4.25144 3.75 4.53125 3.47019 4.53125 3.125V2.5H7.34375V3.125C7.34375 3.47019 7.62356 3.75 7.96875 3.75C8.31394 3.75 8.59375 3.47019 8.59375 3.125V2.5H11.4375V3.125C11.4375 3.47019 11.7173 3.75 12.0625 3.75C12.4077 3.75 12.6875 3.47019 12.6875 3.125V2.5H13.5C14.1892 2.5 14.75 3.06075 14.75 3.75V10.375C14.75 10.7202 15.0298 11 15.375 11Z" fill="white"/>
<path d="M9.24366 8.96591C9.61014 8.72727 9.85185 8.34375 9.85185 7.77273C9.85185 6.70739 9.1423 6 8.03509 6C6.89669 6 6.17154 6.74148 6.10916 7.82386H7.33333C7.36452 7.41477 7.63743 7.15057 8.02729 7.15057C8.41715 7.15057 8.67446 7.40625 8.67446 7.80682C8.67446 8.19886 8.40156 8.47159 7.96491 8.47159H7.52827V9.52841H7.96491C8.47174 9.52841 8.79142 9.77557 8.79142 10.1761C8.79142 10.5682 8.48733 10.8409 8.04289 10.8409C7.51267 10.8409 7.30994 10.5767 7.23197 10.1761H6C6.11696 11.2926 6.78752 12 8.04289 12C9.22027 12 10 11.25 10 10.2017C10 9.57955 9.69591 9.1875 9.24366 8.96591Z" fill="white"/>
</svg>
