<svg width="16" height="17" viewBox="0 0 16 17" fill="none" xmlns="http://www.w3.org/2000/svg">
<g clip-path="url(#clip0)">
<path d="M15.375 11.5C15.7202 11.5 16 11.2202 16 10.875V4.25C16 2.8715 14.8785 1.75 13.5 1.75H12.6875V1.125C12.6875 0.779813 12.4077 0.5 12.0625 0.5C11.7173 0.5 11.4375 0.779813 11.4375 1.125V1.75H8.59375V1.125C8.59375 0.779813 8.31394 0.5 7.96875 0.5C7.62356 0.5 7.34375 0.779813 7.34375 1.125V1.75H4.53125V1.125C4.53125 0.779813 4.25144 0.5 3.90625 0.5C3.56106 0.5 3.28125 0.779813 3.28125 1.125V1.75H2.5C1.1215 1.75 0 2.8715 0 4.25V14C0 15.3785 1.1215 16.5 2.5 16.5H13.5C14.8785 16.5 16 15.3785 16 14C16 13.6548 15.7202 13.375 15.375 13.375C15.0298 13.375 14.75 13.6548 14.75 14C14.75 14.6892 14.1892 15.25 13.5 15.25H2.5C1.81075 15.25 1.25 14.6892 1.25 14V4.25C1.25 3.56075 1.81075 3 2.5 3H3.28125V3.625C3.28125 3.97019 3.56106 4.25 3.90625 4.25C4.25144 4.25 4.53125 3.97019 4.53125 3.625V3H7.34375V3.625C7.34375 3.97019 7.62356 4.25 7.96875 4.25C8.31394 4.25 8.59375 3.97019 8.59375 3.625V3H11.4375V3.625C11.4375 3.97019 11.7173 4.25 12.0625 4.25C12.4077 4.25 12.6875 3.97019 12.6875 3.625V3H13.5C14.1892 3 14.75 3.56075 14.75 4.25V10.875C14.75 11.2202 15.0298 11.5 15.375 11.5Z" fill="white"/>
<path d="M9.10383 6.5H7.7122L6.42259 8.52158C6.16758 8.93165 6 9.30576 6 9.70863C6 10.6942 6.80146 11.5 7.99636 11.5C9.18397 11.5 10 10.7086 10 9.68705C10 8.7518 9.25683 8.01799 8.15665 7.96043L9.10383 6.5ZM7.99636 10.5288C7.49362 10.5288 7.1439 10.1403 7.1439 9.73741C7.1439 9.55755 7.20947 9.39928 7.38434 9.15468L7.41348 9.10432C7.56648 8.9964 7.77778 8.93885 7.99636 8.93885C8.50638 8.93885 8.84153 9.32014 8.84153 9.73022C8.84153 10.1403 8.49909 10.5288 7.99636 10.5288Z" fill="white"/>
</g>
<defs>
<clipPath id="clip0">
<rect width="16" height="16" fill="white" transform="translate(0 0.5)"/>
</clipPath>
</defs>
</svg>
