<svg width="14" height="18" viewBox="0 0 14 18" fill="none" xmlns="http://www.w3.org/2000/svg">
<path d="M13.0913 7.33279C13.0323 7.2 12.8995 7.11148 12.752 7.11148H7.64707L11.52 0.553279C11.5901 0.442623 11.5901 0.29877 11.5237 0.184426C11.4573 0.070082 11.3356 0 11.2028 0H4.38273C4.22043 0 4.07658 0.103279 4.02863 0.258197L0.893386 10.409C0.860189 10.5197 0.878632 10.6414 0.948714 10.7373C1.01511 10.8332 1.12576 10.8885 1.2438 10.8885H5.90978L3.00322 17.4836C2.93314 17.6496 2.98847 17.8414 3.1397 17.941C3.2024 17.9816 3.27248 18 3.34257 18C3.44216 18 3.54175 17.9594 3.61552 17.882L13.0249 7.73115C13.1245 7.62418 13.1504 7.46557 13.0913 7.33279ZM4.57084 15.7684L6.82084 10.6672C6.8688 10.5529 6.85773 10.4201 6.79134 10.3168C6.72125 10.2135 6.60691 10.1508 6.4815 10.1508H1.74543L4.65199 0.741393H10.5536L6.68068 7.29959C6.6106 7.41025 6.6106 7.5541 6.67699 7.66844C6.74338 7.78279 6.86511 7.85287 6.99789 7.85287H11.9073L4.57084 15.7684Z" fill="white"/>
</svg>
