<svg width="123" height="48" viewBox="0 0 123 48" fill="none" xmlns="http://www.w3.org/2000/svg">
<path fill-rule="evenodd" clip-rule="evenodd" d="M41.7669 9.67059C37.9645 11.9443 36.7972 12.1223 32.6984 14.6465C35.083 11.988 35.9158 10.8692 37.4098 8.63847C33.6041 8.8453 28.0921 9.30865 24.1392 10.2018C27.5795 8.33764 34.3797 6.24386 37.9691 5.75567C37.1364 4.58589 30.4051 0.846904 28.7244 0.142487C34.0524 0.564197 40.572 2.58411 43.7237 4.57179C44.9975 4.1803 46.27 4.14874 48.5731 3.94325C47.9874 4.97806 47.9782 5.57906 45.7008 7.10742C46.3318 8.82381 44.8318 18.2747 43.5981 20.7895C43.5442 16.8309 43.1985 11.8322 41.7669 9.67059ZM14.025 43.5679C11.8349 42.744 10.2633 41.7817 8.54453 40.1345C9.06182 38.6867 9.65074 37.5364 10.6189 36.0899C8.83571 36.3498 7.54678 36.5479 6.01991 36.8548C4.76976 34.6254 4.21895 32.4913 3.58204 29.5219C3.23763 32.6659 3.11274 34.9175 3.5551 37.4303C2.15705 37.8211 1.16324 38.1723 0.015625 38.6988C1.62005 39.7154 2.92542 40.5011 4.74018 41.3519C5.6985 43.4685 6.7002 44.913 8.3204 46.5326C7.93458 45.15 7.84584 44.0353 7.98387 42.5875C10.0116 43.1912 11.7291 43.4914 14.025 43.5679ZM19.6921 12.131C19.0026 13.0315 18.223 14.7076 18.0134 15.4886C23.6147 16.2783 28.1316 19.2128 28.1316 19.2128C23.202 18.3257 20.6293 18.4345 18.8008 18.599C16.9755 18.783 16.6055 19.0073 16.6055 19.0073C15.2837 21.9412 14.4969 27.044 14.4969 27.0467C13.601 24.8522 12.3062 20.449 12.3062 20.4457C9.83215 21.8055 4.14534 27.2723 4.14074 27.275C7.2694 20.8674 10.4382 17.9336 10.4415 17.9336C9.34905 16.8182 6.48789 16.2588 4.39708 16.1621C5.48685 15.7048 8.27768 15.1689 10.4204 15.0769C12.5592 15.0078 13.8534 15.1421 13.8567 15.1421C15.7786 13.5942 18.6766 12.2915 19.6921 12.131ZM25.6359 39.6026C24.6388 40.9651 23.7975 42.0523 22.6939 43.3094C20.8042 43.8311 19.3016 44.0292 17.4652 44.04C18.5918 44.637 19.6875 45.0043 20.8581 45.24C19.6875 46.3366 18.6844 47.1195 17.5434 47.8575C19.4594 47.3855 21.9945 46.5501 23.8678 45.4314C24.8373 45.4589 25.7588 45.3958 26.4305 45.2742C26.2682 44.6773 26.1466 44.2502 26.0046 43.4853C27.7773 42.0832 29.0676 40.8214 30.5228 39.3065C28.963 40.4199 27.6071 41.2619 25.8153 42.1315C25.7307 41.2906 25.6709 40.4472 25.6359 39.6026Z" fill="#8094B0"/>
<path fill-rule="evenodd" clip-rule="evenodd" d="M23.1565 27.1723C23.2321 28.009 23.284 30.0961 23.284 30.8616C23.284 31.5633 23.2742 33.9177 23.1447 34.9337L23.1289 35.0163L27.6339 35.0176C29.8352 35.0176 32.183 34.4455 32.183 32.8446C32.183 31.84 31.295 31.096 29.6268 30.687C30.8507 30.4218 31.6848 29.7281 31.6848 28.9283C31.6848 27.6249 29.8411 27.1246 28.1197 27.0951L23.1506 27.0897L23.1565 27.1723ZM26.6362 27.9775C28.5167 27.9842 29.2147 28.3011 29.2147 29.1385C29.2147 29.3641 29.1319 29.5609 28.9649 29.7261C28.6041 30.0759 27.8863 30.2559 26.997 30.2217H26.953L26.4337 31.3364H26.9596C27.9961 31.3061 28.8953 31.5761 29.3567 32.0368C29.5709 32.2503 29.6774 32.4907 29.6774 32.7526C29.6774 33.6363 28.7336 34.0862 26.882 34.0862C26.5691 34.0862 26.067 34.0849 25.7442 34.0681C25.6772 32.9097 25.6726 31.3296 25.6726 30.8616C25.6726 30.311 25.7028 29.0807 25.7469 28.0285C26.0418 27.991 26.3389 27.9739 26.6362 27.9775ZM42.5667 27.0897H40.3846L40.4772 29.0861C40.5154 30.08 40.5555 31.0926 40.637 32.075C40.4884 31.7749 40.3635 31.6083 39.7115 30.8213C39.6905 30.7924 37.4209 27.9257 36.6308 27.1146L36.6078 27.0897H34.0602L34.0641 27.1683C34.1397 28.0036 34.1923 30.092 34.1923 30.8616C34.1923 31.5607 34.1824 33.9177 34.0503 34.9323L34.0405 35.0122H36.3015L36.2969 34.9377C36.1641 32.9937 36.1641 31.0449 36.1641 29.1627V29.1573C36.2417 29.3816 36.3482 29.5904 36.7038 30.0215C36.7432 30.0685 40.6284 34.708 40.8276 34.9847L40.8466 35.0122H42.666L42.6568 34.9323C42.5201 33.9143 42.5115 31.5607 42.5115 30.8616C42.5115 30.092 42.5661 27.9983 42.639 27.1683L42.6496 27.0897H42.5667ZM45.1998 27.1669C45.2721 28.0077 45.3273 30.0927 45.3273 30.8616C45.3273 31.5607 45.3175 33.915 45.1821 34.9303L45.1742 35.0116H47.8704L47.8625 34.9303C47.7658 34.2051 47.7336 32.8137 47.7231 31.7406C47.8329 31.746 48.2187 31.7614 48.2187 31.7614L48.5953 31.7755C52.1512 31.7755 53.8779 30.9952 53.8779 29.387C53.8779 27.5537 51.4572 27.1287 49.4281 27.089H45.1932L45.1998 27.1669ZM48.5027 28.0453C49.7653 28.0258 50.6553 28.238 51.0825 28.6698C51.2725 28.8625 51.3697 29.1036 51.3697 29.387C51.3697 30.5373 49.7995 30.7743 48.4829 30.7743L47.9505 30.7622C47.9505 30.7622 47.8171 30.7488 47.7356 30.7374C47.7258 30.4748 47.7225 30.1303 47.7225 29.7355C47.7225 29.2292 47.729 28.651 47.7553 28.095C48.0037 28.0677 48.253 28.0512 48.5027 28.0453ZM59.0284 27.1669C59.1066 28.0077 59.1585 30.0927 59.1585 30.8616C59.1585 31.5607 59.1493 33.915 59.0179 34.9303L59.0067 35.0116H61.7035L61.691 34.9303C61.5997 34.2051 61.5648 32.8137 61.5537 31.7406L62.0447 31.7614L62.4259 31.7755C65.9805 31.7755 67.7085 30.9952 67.7085 29.387C67.7085 27.5537 65.2884 27.1287 63.2567 27.089H59.0238L59.0284 27.1669ZM62.3339 28.0453C63.5959 28.0258 64.4852 28.238 64.9104 28.6698C65.103 28.8625 65.2029 29.1036 65.2029 29.387C65.2029 30.5373 63.63 30.7743 62.3109 30.7743L61.7798 30.7622C61.7798 30.7622 61.6477 30.7488 61.5662 30.7374C61.5576 30.4748 61.553 30.125 61.553 29.7341C61.553 29.2265 61.5616 28.651 61.5859 28.095C61.7495 28.0741 62.044 28.0533 62.3339 28.0453ZM71.3229 27.0944H71.2795L71.2591 27.1387C70.757 28.2628 67.5297 34.0258 67.0269 34.9055L66.9651 35.0169H69.2787L69.2938 34.9686C69.4969 34.4307 69.7546 33.8156 70.0589 33.1548L71.9729 33.1313L73.5471 33.1468C73.5471 33.1468 73.8245 33.1535 73.8909 33.1535C74.3096 34.007 74.6165 34.6523 74.7526 34.9713L74.769 35.0169H77.4481L73.1324 27.0937H71.3229V27.0944ZM71.9788 29.4279C72.1931 29.802 72.7466 30.8616 73.3716 32.1113L73.1652 32.118L71.9788 32.1314C71.9788 32.1314 70.7517 32.1147 70.5604 32.1093C71.0131 31.2045 71.486 30.3105 71.9788 29.4279ZM78.5162 27.1683C78.5878 28.0036 78.647 30.0927 78.647 30.8616C78.647 31.5607 78.6319 33.915 78.4991 34.9303L78.4899 35.0129H81.1861L81.1782 34.933C81.0408 33.9116 81.0329 31.5613 81.0329 30.8623C81.0329 30.3116 81.0638 29.0814 81.1072 28.095C81.351 28.0728 81.5954 28.0581 81.8401 28.0507C83.0994 28.0285 83.99 28.2434 84.4127 28.6738C84.6092 28.8638 84.7091 29.1103 84.7091 29.3883C84.7091 30.3036 83.6542 30.7656 82.6781 30.8086C82.4861 30.8168 82.2937 30.8089 82.103 30.7851L81.9183 30.7589L82.0392 30.9032C82.9818 32.0455 84.4206 34.0365 85.0226 34.986L85.0469 35.0189H87.9357L87.8496 34.8981C87.751 34.7712 85.8561 32.5035 85.0535 31.5338C85.0535 31.5338 85.0226 31.4982 85.0049 31.4734C86.4706 31.1087 87.1936 30.4291 87.1936 29.3883C87.1936 27.5571 84.7696 27.13 82.7405 27.0958L78.5083 27.0904L78.5162 27.1683ZM91.771 27.087H89.1839L89.1931 27.1656C89.2674 28.0036 89.3186 30.0927 89.3186 30.8603C89.3186 31.5553 89.3107 33.9109 89.1773 34.9276L89.1681 35.0116H91.8656L91.8518 34.9276C91.721 33.9109 91.7105 31.556 91.7105 30.8603C91.7105 30.0914 91.7657 27.9983 91.8387 27.1656L91.8452 27.087H91.771ZM94.2923 27.1723C94.3666 28.0077 94.4218 30.0947 94.4218 30.8616C94.4218 31.5633 94.4126 33.9177 94.2805 34.9337L94.2686 35.0163L98.771 35.0176C100.97 35.0176 103.325 34.4455 103.325 32.8446C103.325 31.84 102.431 31.096 100.763 30.687C101.986 30.4218 102.821 29.7281 102.821 28.9283C102.821 27.6249 100.979 27.1246 99.2554 27.0951L94.287 27.0897L94.2923 27.1723ZM97.7719 27.9775C99.6551 27.9842 100.355 28.3011 100.355 29.1385C100.355 29.3641 100.27 29.5609 100.099 29.7261C99.7451 30.0759 99.026 30.2559 98.1354 30.2217H98.0894L97.5721 31.3364H98.0986C99.1358 31.3061 100.032 31.5761 100.494 32.0368C100.707 32.2503 100.814 32.4907 100.814 32.7526C100.814 33.6363 99.8766 34.0862 98.0217 34.0862C97.7069 34.0862 97.2027 34.0849 96.8833 34.0681C96.8163 32.9097 96.8149 31.3296 96.8149 30.8616C96.8149 30.3042 96.8406 29.0807 96.8919 28.0285C97.1837 27.9907 97.4778 27.9736 97.7719 27.9775ZM110.035 27.087H108.219L108.202 27.1287C107.668 28.3246 104.253 34.3998 103.969 34.9008L103.908 35.0109H106.222L106.238 34.9612C106.471 34.3471 106.726 33.7421 107.002 33.1474C107.084 33.1474 108.911 33.1226 108.911 33.1226L110.487 33.1421C110.487 33.1421 110.763 33.1474 110.833 33.1474C111.252 33.9976 111.559 34.6442 111.693 34.9639L111.713 35.0109H114.389L110.075 27.0864H110.035V27.087ZM108.921 29.4212C109.137 29.7952 109.687 30.8549 110.314 32.1019L110.111 32.1086L108.919 32.1254L107.503 32.1019C107.955 31.1969 108.428 30.3031 108.921 29.4212ZM115.063 29.1432C115.063 30.5346 116.778 31.1 118.293 31.5996C119.469 31.9864 120.68 32.392 120.68 33.0528C120.68 33.2562 120.62 33.4174 120.488 33.5423C120.214 33.8149 119.633 33.9304 118.723 33.8948C117.834 33.8566 116.813 33.6235 115.688 33.1944L115.213 33.0145L115.214 33.3214V34.7456L115.523 34.8007L115.712 34.8323C116.278 34.9464 117.356 35.1512 118.442 35.1512C121.286 35.1512 122.985 34.2319 122.985 32.6948C122.985 31.2679 121.231 30.6944 119.684 30.1921C118.543 29.8181 117.362 29.4367 117.362 28.8256C117.362 28.651 117.362 28.1198 118.823 28.1198C119.918 28.1198 120.989 28.4831 121.566 28.6785L122.126 28.8605L122.118 28.5644V27.124L121.567 27.0441C121.019 26.9574 120.103 26.813 119.152 26.813C116.706 26.8137 115.063 27.7505 115.063 29.1432Z" fill="#8094B0"/>
</svg>
