<svg width="22" height="18" viewBox="0 0 22 18" fill="none" xmlns="http://www.w3.org/2000/svg">
<path d="M21.3555 0.621094H0.644531C0.297344 0.621094 0 0.905031 0 1.26562V16.7344C0 17.0817 0.283551 17.379 0.645047 17.3789H21.355C21.7185 17.379 22 17.0807 22 16.7344V1.26562C22 0.910789 21.7081 0.621094 21.3555 0.621094ZM9.06641 6.74638L2.58586 1.91016H9.06641V6.74638ZM7.33992 7.06641H1.28906V2.55082L7.33992 7.06641ZM1.28906 10.9336H7.33992L1.28906 15.4492V10.9336ZM9.06641 11.2536V16.0898H2.58586L9.06641 11.2536ZM9.71094 9.64453H1.28906V8.35547H9.71094C10.0669 8.35547 10.3555 8.06689 10.3555 7.71094V1.91016H11.6445V7.71094C11.6445 8.06689 11.9331 8.35547 12.2891 8.35547H20.7109V9.64453H12.2891C11.9331 9.64453 11.6445 9.93311 11.6445 10.2891V16.0898H10.3555V10.2891C10.3555 9.93311 10.0669 9.64453 9.71094 9.64453ZM12.9336 6.74638V1.91016H19.4141L12.9336 6.74638ZM20.7109 2.55082V7.06641H14.6601L20.7109 2.55082ZM12.9336 11.2536L19.4141 16.0898H12.9336V11.2536ZM14.6601 10.9336H20.7109V15.4492L14.6601 10.9336Z" fill="#273B61"/>
</svg>
