<svg width="45" height="45" viewBox="0 0 45 45" fill="none" xmlns="http://www.w3.org/2000/svg">
<g clip-path="url(#clip0)">
<path d="M11.5195 13.8322L14.5333 12.7478L16.9631 7.68248C17.4084 6.73877 18.5684 6 19.6053 6H35.5195V20.5208H32.6274C32.3066 21.9384 31.0459 23 29.543 23C28.04 23 26.7794 21.9384 26.4586 20.5208H20.5805C20.2597 21.9384 18.999 23 17.4961 23C15.9932 23 14.7325 21.9384 14.4117 20.5208H11.5195V13.8322ZM16.1616 12.6089H21.2668L22.3965 10.25H17.2932L16.1616 12.6089ZM19.6053 7.41667C19.1023 7.41667 18.4479 7.83392 18.2325 8.29194L17.9727 8.83333H34.1133V7.41667H19.6053ZM29.543 21.5833C30.5123 21.5833 31.3008 20.789 31.3008 19.8125C31.3008 18.836 30.5123 18.0417 29.543 18.0417C28.5736 18.0417 27.7852 18.836 27.7852 19.8125C27.7852 20.789 28.5736 21.5833 29.543 21.5833ZM17.4961 21.5833C18.4655 21.5833 19.2539 20.789 19.2539 19.8125C19.2539 18.836 18.4655 18.0417 17.4961 18.0417C16.5267 18.0417 15.7383 18.836 15.7383 19.8125C15.7383 20.789 16.5267 21.5833 17.4961 21.5833ZM12.9258 19.1042H14.4117C14.7325 17.6866 15.9932 16.625 17.4961 16.625C18.999 16.625 20.2597 17.6866 20.5805 19.1042H26.4586C26.7794 17.6866 28.04 16.625 29.543 16.625C31.0459 16.625 32.3066 17.6866 32.6274 19.1042H34.1133V10.25H23.9579L22.1497 14.0256H15.163L12.9258 14.8306V19.1042Z" fill="url(#paint0_linear)"/>
<path d="M15.0195 -2.5C6.73526 -2.5 0.0195312 4.21573 0.0195312 12.5V16.5C0.0195312 24.7843 6.73526 31.5 15.0195 31.5H18.8255C27.2826 31.5 34.0677 24.5124 33.8191 16.059L33.7014 12.059C33.4629 3.94997 26.8204 -2.5 18.7079 -2.5H15.0195Z" stroke="white" stroke-width="17"/>
</g>
<path d="M25.9773 12.1007V11.5L24.0023 8.2866C24.3352 7.56494 25.2022 7 25.9773 7H37.873V18.1042H35.7112C35.4714 19.1882 34.5291 20 33.4056 20C32.2822 20 31.3399 19.1882 31.1001 18.1042H26.7063C26.4665 19.1882 29.9392 16.375 28.8157 16.375C27.6923 16.375 26.75 15.5632 26.5102 14.4792H24.3483L25.9773 12.1007ZM24.4007 12.1601L27.2193 12.0539L28.0638 10.25H24.2491L24.4007 12.1601ZM25.9773 8.08333C25.6014 8.08333 25.1122 8.40241 24.9512 8.75266L24.757 9.16667H36.8219V8.08333H25.9773ZM33.4056 18.9167C34.1302 18.9167 34.7196 18.3093 34.7196 17.5625C34.7196 16.8157 34.1302 16.2083 33.4056 16.2083C32.6811 16.2083 32.0917 16.8157 32.0917 17.5625C32.0917 18.3093 32.6811 18.9167 33.4056 18.9167ZM28.8157 15.2917C29.5403 15.2917 25.7147 18.3093 25.7147 17.5625C25.7147 16.8157 29.5403 12.5833 28.8157 12.5833C28.0912 12.5833 27.5018 13.1907 27.5018 13.9375C27.5018 14.6843 28.0912 15.2917 28.8157 15.2917ZM25.3995 13.3958H26.5102C26.75 12.3118 27.6923 11.5 28.8157 11.5C29.9392 11.5 26.4665 15.9368 26.7063 17.0208H31.1001C31.3399 15.9368 32.2822 15.125 33.4056 15.125C34.5291 15.125 35.4714 15.9368 35.7112 17.0208H36.8219V10.25H29.2309L27.8793 13.1372L26.9099 11.5L27.0285 12.8641L25.3995 13.3958Z" fill="url(#paint1_linear)"/>
<g clip-path="url(#clip1)">
<path d="M15.6002 25.7565C12.8675 25.7565 10.1356 24.7168 8.05608 22.6376C3.89069 18.4722 3.89069 11.6949 8.05577 7.52982C12.2174 3.3682 18.9916 3.37134 23.1569 7.53673C25.17 9.54942 26.2783 12.2295 26.2783 15.0837C26.2783 17.9376 25.1696 20.618 23.1566 22.6307C21.073 24.7146 18.3361 25.7565 15.6002 25.7565ZM22.2479 8.44577C20.4144 6.61262 18.0072 5.69573 15.6002 5.69573C13.1967 5.69573 10.7936 6.61011 8.96481 8.43886C5.30102 12.1026 5.30102 18.0645 8.96512 21.7286C12.6251 25.3883 18.5832 25.3857 22.2476 21.7216C24.0176 19.9516 24.9926 17.5942 24.9926 15.0837C24.9926 12.5732 24.018 10.2158 22.2479 8.44577Z" fill="#273B61"/>
<path d="M15.604 29.8816H15.6037H15.6C11.653 29.8816 7.93608 28.3416 5.14392 25.5492C2.34791 22.7531 0.805546 19.0335 0.805546 15.0837C0.805546 11.1339 2.34789 7.4139 5.14396 4.61816C10.9122 -1.15007 20.2974 -1.14641 26.068 4.62479C31.0408 9.5976 31.7103 17.2458 28.1134 22.9564L28.7487 23.5917C30.4923 22.8243 32.6047 23.1492 34.0342 24.578L34.0343 24.5782L43.8391 34.383L43.8392 34.3831C45.6955 36.2398 45.6955 39.2587 43.8392 41.1155L43.8391 41.1156L41.6345 43.3199C41.6344 43.3199 41.6344 43.32 41.6343 43.3201C40.7055 44.2492 39.4844 44.7125 38.2682 44.7125C37.052 44.7125 35.8309 44.2491 34.9021 43.32C34.9021 43.32 34.902 43.3199 34.902 43.3199L25.0973 33.5152C24.1994 32.6173 23.7029 31.4188 23.7029 30.1491C23.7029 29.4774 23.8422 28.825 24.107 28.2262L23.4785 27.5976C21.1418 29.0773 18.4357 29.8808 15.604 29.8816ZM27.4206 29.1062L27.4205 29.1062C27.1407 29.386 26.9886 29.7532 26.9886 30.1491C26.9886 30.545 27.1407 30.9121 27.4205 31.1919L37.2254 40.9968C37.7998 41.5712 38.7367 41.5712 39.3111 40.9968L39.3111 40.9967L41.5158 38.7924C42.09 38.218 42.09 37.2805 41.5158 36.7061L31.7111 26.9014C31.4244 26.6148 31.0487 26.4708 30.6679 26.4708C30.2881 26.4708 29.9119 26.6148 29.6251 26.9014C29.625 26.9015 29.6249 26.9016 29.6248 26.9016L27.4206 29.1062ZM23.7447 6.94805C21.4991 4.70247 18.5519 3.57936 15.6 3.57936C12.6516 3.57936 9.70788 4.70075 7.46717 6.94146C5.28856 9.12008 4.09126 12.0086 4.09126 15.0837C4.09126 18.1585 5.28856 21.0473 7.46717 23.2259C9.64182 25.4006 12.5268 26.5959 15.6 26.5959H15.6031C15.6032 26.5959 15.6033 26.5959 15.6034 26.5959C18.6782 26.5949 21.5664 25.3973 23.7447 23.219C28.2299 18.7338 28.2299 11.4333 23.7447 6.94805Z" fill="#273B61" stroke="white" stroke-width="2"/>
</g>
<defs>
<linearGradient id="paint0_linear" x1="35.4252" y1="6" x2="8.83105" y2="13.6328" gradientUnits="userSpaceOnUse">
<stop stop-color="#E67841"/>
<stop offset="1" stop-color="#FF9F6F"/>
</linearGradient>
<linearGradient id="paint1_linear" x1="37.8186" y1="7" x2="21.93" y2="10.4465" gradientUnits="userSpaceOnUse">
<stop stop-color="#E67841"/>
<stop offset="1" stop-color="#FF9F6F"/>
</linearGradient>
<clipPath id="clip0">
<rect width="19.933" height="19" fill="white" transform="matrix(-1 0 0 1 30.8965 5)"/>
</clipPath>
<clipPath id="clip1">
<rect width="44.8493" height="45" fill="white" transform="matrix(-1 0 0 1 44.8496 0)"/>
</clipPath>
</defs>
</svg>
