<svg width="111" height="72" viewBox="0 0 111 72" fill="none" xmlns="http://www.w3.org/2000/svg">
<path fill-rule="evenodd" clip-rule="evenodd" d="M73.7224 53.204L59.075 17.9614H48.8425L34.1951 53.204H51.5516L52.8501 39.0348H55.1875L56.486 53.204H73.7224ZM54.2485 26.2826H53.6592L52.98 35.2993H54.9278L54.2485 26.2826Z" fill="#8094B0"/>
<path d="M29.087 18.1675H40.618L25.9186 53.4101H14.6993L0 18.1675H11.5829L20.309 39.8592L29.087 18.1675Z" fill="#8094B0"/>
<path d="M99.5079 18.1675H110V53.204H101.845L87.094 36.6647V53.204H76.6538V18.1675H84.8085L99.5079 35.016V18.1675Z" fill="#8094B0"/>
<path d="M18.6184 60.541H15.0615L13.283 66.6909L11.1722 60.541H8.44628L6.31877 66.6744L4.55693 60.541H1L4.57355 71.8186H7.78144L9.80922 65.3719L11.837 71.8186H15.0283L18.6184 60.541Z" fill="#8094B0"/>
<path d="M25.5449 70.1534L26.1433 71.7527H29.7002L25.013 60.4751H21.7387L17.0515 71.7527H20.6251L21.2068 70.1534H25.5449ZM24.5477 67.4494H22.2041L23.3675 64.2672L24.5477 67.4494Z" fill="#8094B0"/>
<path d="M37.669 71.7527H41.4753L39.0486 67.8781C40.1123 67.1196 40.6941 65.9655 40.6941 64.6135C40.6941 62.0414 38.8159 60.541 35.7576 60.541H30.6383V71.7527H33.9791V68.8014H35.8906L37.669 71.7527ZM33.9791 65.8665V63.3604H35.7243C36.6385 63.3604 37.32 63.8386 37.32 64.5805C37.32 65.3554 36.6385 65.8665 35.7243 65.8665H33.9791Z" fill="#8094B0"/>
<path d="M45.601 63.3274H51.0361V60.541H42.2601V71.7527H51.0361V68.9663H45.601V67.4988H50.2549V64.8278H45.601V63.3274Z" fill="#8094B0"/>
<path d="M63.076 60.541H59.7186V64.8608H55.7295V60.541H52.3886V71.7527H55.7295V67.7626H59.7186V71.7527H63.076V60.541Z" fill="#8094B0"/>
<path d="M70.5749 60.2937C67.0014 60.2937 64.4749 62.8328 64.4749 66.1468C64.4749 69.4609 67.0014 72 70.5749 72C74.1485 72 76.6749 69.4609 76.6749 66.1468C76.6749 62.8328 74.1485 60.2937 70.5749 60.2937ZM70.5749 68.8838C68.9959 68.8838 67.8823 67.6143 67.8823 66.1468C67.8823 64.6794 68.9959 63.4099 70.5749 63.4099C72.1539 63.4099 73.2675 64.6794 73.2675 66.1468C73.2675 67.6143 72.1539 68.8838 70.5749 68.8838Z" fill="#8094B0"/>
<path d="M88.7556 60.541H85.3649V66.4436C85.3649 67.977 84.5837 68.9003 83.3039 68.9003C82.024 68.9003 81.2429 67.977 81.2429 66.4436V60.541H77.8521V66.3282C77.8521 70.005 79.8799 72 83.3039 72C86.7278 72 88.7556 70.005 88.7556 66.3282V60.541Z" fill="#8094B0"/>
<path d="M94.8816 60.2937C92.1391 60.2937 90.2276 61.6787 90.2276 64.0529C90.2276 65.8501 91.308 66.7569 93.5352 67.268L95.4301 67.7132C96.178 67.8781 96.311 68.1913 96.311 68.5046C96.311 68.9662 95.8622 69.2795 95.0976 69.2795C94.0173 69.2795 93.3524 68.7519 93.1862 67.9275H89.7622C90.1113 71.0602 92.7707 72 95.0478 72C98.0728 72 100.001 70.582 100.001 68.2573C100.001 66.2458 98.6047 65.3884 96.6933 64.9268L94.8317 64.4816C94.1336 64.3167 93.8012 64.1189 93.8012 63.6242C93.8012 63.1131 94.2832 62.7998 95.0145 62.7998C95.9952 62.7998 96.3775 63.4429 96.5271 64.1024H99.9012C99.602 60.9202 96.66 60.2937 94.8816 60.2937Z" fill="#8094B0"/>
<path d="M104.7 63.3274H110.135V60.541H101.359V71.7527H110.135V68.9663H104.7V67.4988H109.354V64.8278H104.7V63.3274Z" fill="#8094B0"/>
<path d="M49.6585 2.88536V0H39.586V2.88536H42.9435V11.2117H46.301V2.88536H49.6585Z" fill="#8094B0"/>
<path d="M61.4367 0H58.0792V4.31979H54.0901V0H50.7492V11.2117H54.0901V7.22164H58.0792V11.2117H61.4367V0Z" fill="#8094B0"/>
<path d="M66.4423 2.78643H71.8775V0H63.1015V11.2117H71.8775V8.42525H66.4423V6.95784H71.0963V4.28682H66.4423V2.78643Z" fill="#8094B0"/>
</svg>
