<svg width="44" height="44" viewBox="0 0 44 44" fill="none" xmlns="http://www.w3.org/2000/svg">
<g clip-path="url(#clip0)">
<path d="M37.0161 9.89198C37.0634 9.52989 37.0878 9.16524 37.0894 8.80004C37.0894 3.93994 33.1494 0 28.2894 0C23.4293 0 19.4893 3.93994 19.4893 8.80004C19.4893 9.0479 19.504 9.29211 19.5238 9.53337H19.4893C16.5943 9.53823 14.0842 11.6019 13.6452 14.4635C10.9354 15.6142 9.17463 18.272 9.17188 21.216V35.1494C9.17426 37.1734 10.8145 38.8137 12.8386 38.8161H20.1719C22.1959 38.8137 23.8362 37.1734 23.8386 35.1494V21.216C23.8368 20.6243 23.7629 20.035 23.6186 19.4612C24.3067 18.7659 24.8591 17.959 25.1279 17.0185C25.6764 17.2257 26.2441 17.3778 26.8227 17.4725V21.2668C26.8251 23.2908 28.4654 24.9311 30.4894 24.9334H31.2227V41.0668C31.2227 41.2614 31.3001 41.4478 31.4376 41.5853L33.6376 43.7853C33.9239 44.0716 34.3881 44.0716 34.6745 43.7853L36.8745 41.5853C37.012 41.4478 37.0894 41.2614 37.0894 41.0668V38.1335C37.0894 37.939 37.012 37.7525 36.8745 37.615L35.9263 36.6668L36.8745 35.7186C37.012 35.5811 37.0894 35.3947 37.0894 35.2001V34.4668C37.0894 34.2723 37.012 34.0858 36.8745 33.9483L35.9263 33.0001L36.8745 32.0519C37.012 31.9144 37.0894 31.728 37.0894 31.5335V30.8001C37.0894 30.6056 37.012 30.4192 36.8745 30.2817L35.9263 29.3335L36.8745 28.3853C37.012 28.2478 37.0894 28.0613 37.0894 27.8668V24.9334H37.8227C39.8467 24.9311 41.487 23.2908 41.4894 21.2668V16.1334C41.4848 13.3109 39.6874 10.8031 37.0161 9.89198ZM14.3052 20.116C14.3064 19.6656 14.475 19.2317 14.7782 18.8987C15.2714 19.547 15.8934 20.0863 16.605 20.4827H14.3052V20.116ZM16.1716 18.2864V18.2827C16.9105 18.297 17.5685 18.7535 17.8406 19.4406C17.2021 19.1909 16.6306 18.7957 16.1716 18.2864ZM22.3719 35.1494C22.3719 36.3645 21.387 37.3494 20.1719 37.3494H12.8386C11.6235 37.3494 10.6385 36.3645 10.6385 35.1494V21.216C10.6407 19.0995 11.7826 17.1482 13.6269 16.1098C13.6921 16.6231 13.8254 17.1256 14.0236 17.6036C13.2763 18.2244 12.8423 19.1444 12.8386 20.116V21.216C12.8386 21.621 13.1669 21.9494 13.5719 21.9494H18.7053C19.1102 21.9494 19.4386 21.621 19.4386 21.216V19.7494C19.4261 19.7494 19.4137 19.7494 19.4012 19.7494C19.2291 17.9667 17.6445 16.661 15.8618 16.8332C15.6841 16.8503 15.5081 16.8821 15.3356 16.9282C15.1651 16.4849 15.068 16.0168 15.0481 15.5422C18.1699 14.7244 21.3635 16.5923 22.1813 19.7141C22.3097 20.2043 22.3738 20.7092 22.3719 21.216V35.1494ZM23.7279 16.3151C23.6026 16.88 23.366 17.4142 23.0319 17.8867C21.5875 15.0103 18.4217 13.4282 15.2542 14C15.8409 12.1841 17.581 11.0033 19.4893 11C19.5854 11 19.68 11.0081 19.7746 11.0147C20.3459 13.2596 21.7364 15.1343 23.7293 16.3151H23.7279ZM21.4488 11.4672C22.6924 12.0885 23.5191 13.2096 23.7653 14.5779C22.6998 13.7624 21.9313 12.7191 21.4488 11.4672ZM26.83 15.9867C26.3216 15.8847 25.8255 15.7289 25.3501 15.5218C25.3501 15.4815 25.356 15.4419 25.356 15.4015C25.3513 12.755 23.5767 10.4388 21.0227 9.74531C20.9804 9.43199 20.9581 9.1162 20.956 8.80004C20.956 4.74991 24.2392 1.46667 28.2894 1.46667C32.3395 1.46667 35.6227 4.74991 35.6227 8.80004C35.6179 9.0568 35.5993 9.3131 35.567 9.56784C35.3419 9.54483 35.1157 9.53337 34.8894 9.53337H33.4227C29.8381 9.53915 26.9124 12.4031 26.83 15.9867ZM36.3561 14.6667C36.3561 15.0717 36.0277 15.4001 35.6227 15.4001H34.1062C34.5994 14.9619 35.0422 14.4699 35.4262 13.9334H35.6227C36.0277 13.9334 36.3561 14.2617 36.3561 14.6667ZM35.6227 27.5632L34.3709 28.815C34.0846 29.1014 34.0846 29.5656 34.3709 29.8519L35.6227 31.1037V31.2299L34.3709 32.4817C34.0846 32.768 34.0846 33.2322 34.3709 33.5186L35.6227 34.7704V34.8965L34.3709 36.1484C34.0846 36.4347 34.0846 36.8989 34.3709 37.1853L35.6227 38.4371V40.7632L34.156 42.2299L32.6894 40.7632V24.9334H35.6227V27.5632ZM40.0227 21.2668C40.0227 22.4818 39.0378 23.4668 37.8227 23.4668H30.4894C29.2743 23.4668 28.2894 22.4818 28.2894 21.2668V16.1334C28.2926 13.2997 30.589 11.0033 33.4227 11H34.8894C35.017 11 35.1424 11.0103 35.2671 11.0191C35.1037 11.5237 34.8861 12.009 34.618 12.4667H32.6894C31.4768 12.4672 30.4941 13.4506 30.4947 14.6632C30.495 15.5802 31.0652 16.4003 31.9245 16.7201L31.9604 16.7985C31.9883 16.7853 32.0147 16.7699 32.0426 16.7567C32.2513 16.8263 32.4694 16.8634 32.6894 16.8667H35.6227C36.8345 16.8698 37.8193 15.8899 37.8224 14.6781C37.8248 13.6983 37.1773 12.8356 36.2358 12.5643C36.4245 12.1687 36.5834 11.7596 36.711 11.3403C38.7016 12.0972 40.0189 14.0037 40.0227 16.1334V21.2668ZM33.496 13.9334C33.074 14.3659 32.5998 14.7443 32.0844 15.0598C32.0036 14.9444 31.959 14.8075 31.956 14.6667C31.956 14.2617 32.2844 13.9334 32.6894 13.9334H33.496Z" fill="#273B61"/>
<path d="M18.7563 23.4668H14.3563C13.1412 23.4668 12.1562 24.4518 12.1562 25.6668V33.7335C12.1562 34.9486 13.1412 35.9335 14.3563 35.9335H18.7563C19.9713 35.9335 20.9563 34.9486 20.9563 33.7335V25.6668C20.9563 24.4518 19.9713 23.4668 18.7563 23.4668ZM19.4896 33.7335C19.4896 34.1385 19.1613 34.4668 18.7563 34.4668H14.3563C13.9513 34.4668 13.6229 34.1385 13.6229 33.7335V32.2668H19.4896V33.7335ZM19.4896 30.8002H13.6229V28.6002H19.4896V30.8002ZM19.4896 27.1335H13.6229V25.6668C13.6229 25.2618 13.9513 24.9335 14.3563 24.9335H18.7563C19.1613 24.9335 19.4896 25.2618 19.4896 25.6668V27.1335Z" fill="url(#paint0_linear)"/>
</g>
<defs>
<linearGradient id="paint0_linear" x1="12.1908" y1="23.4668" x2="22.5324" y2="24.9509" gradientUnits="userSpaceOnUse">
<stop stop-color="#E67841"/>
<stop offset="1" stop-color="#FF9F6F"/>
</linearGradient>
<clipPath id="clip0">
<rect width="43.8526" height="44" fill="white"/>
</clipPath>
</defs>
</svg>
