<svg width="130" height="22" viewBox="0 0 130 22" fill="none" xmlns="http://www.w3.org/2000/svg">
<g clip-path="url(#clip0)">
<path d="M104.23 1.39563V9.07939H114.863C114.863 9.10581 114.853 1.39387 114.863 1.39563C114.853 1.39387 120.074 1.39563 120.128 1.39563C120.128 1.39563 120.147 20.5852 120.128 20.6072H114.863V12.151C114.863 12.1774 104.23 12.151 104.23 12.151C104.24 12.1862 104.23 20.6134 104.23 20.6072H98.9736C98.9736 20.6072 99.001 1.39563 98.9736 1.39563H104.23Z" fill="#8094B0"/>
<path d="M54.2774 1.39405V4.66028H46.2237V20.6057H40.9668V4.66028H32.9131C32.9131 4.66028 32.9222 1.40109 32.9131 1.39405C32.9222 1.40109 54.2774 1.39405 54.2774 1.39405Z" fill="#8094B0"/>
<path d="M62.222 4.66181L58.5596 13.4026H65.8845L62.222 4.66181ZM74.7309 20.6072H68.8728C68.8819 20.6072 67.1509 16.4786 67.1509 16.4786H57.2841C57.2841 16.4786 55.5895 20.6133 55.5713 20.6072C55.5713 20.6133 49.7041 20.6072 49.7041 20.6072L58.9969 1.39558C58.9969 1.40438 65.4472 1.39558 65.4472 1.39558L74.7309 20.6072Z" fill="#8094B0"/>
<path d="M124.301 20.6069H129.567V1.39532H124.301V20.6069Z" fill="#8094B0"/>
<path d="M5.69951 1.39547C5.69951 1.39547 5.6904 9.13561 5.69951 9.07924H16.3316C16.3316 9.10566 16.3133 1.39371 16.3316 1.39547C16.3133 1.39371 21.5428 1.39547 21.5975 1.39547C21.5975 1.39547 21.6157 20.5851 21.5975 20.6071H16.3316V12.1508C16.3316 12.1772 5.69951 12.1508 5.69951 12.1508C5.69951 12.186 5.6904 20.6132 5.69951 20.6071H0.433594C0.433594 20.6071 0.460926 1.39547 0.433594 1.39547H5.69951Z" fill="#8094B0"/>
<path d="M25.7705 20.6069H31.0273V1.39532H25.7705V20.6069Z" fill="#8094B0"/>
<path d="M74.5485 15.2901C74.0839 13.9944 73.8379 12.6291 73.8379 11.1915C73.8379 9.17344 74.2023 7.2188 75.2045 5.59097C76.234 3.91998 77.8192 2.63039 79.7324 1.94508C81.5454 1.28267 83.5042 0.918877 85.5632 0.918877C87.9229 0.918877 90.155 1.41833 92.2048 2.271C94.0998 3.06113 95.5302 4.71275 95.9584 6.70966C96.0495 7.10429 96.1133 7.51742 96.1406 7.92966H90.6196C90.6014 7.41171 90.5194 6.90786 90.3372 6.45245C89.9181 5.39013 88.9979 4.55948 87.8682 4.2318C87.1393 4.0107 86.3558 3.89619 85.5632 3.89619C84.6522 3.89619 83.7684 4.04506 82.9576 4.3287C81.6092 4.78674 80.5615 5.84466 80.0786 7.14922C79.614 8.40885 79.3589 9.7733 79.3589 11.1915C79.3589 12.3683 79.5593 13.5002 79.86 14.5652C80.2609 15.9631 81.3541 17.0897 82.7389 17.6033C83.6136 17.9204 84.5702 18.1063 85.5632 18.1063C86.4105 18.1063 87.2213 17.9829 87.9957 17.7433C89.0252 17.4227 89.8634 16.689 90.3007 15.7456C90.5832 15.1193 90.7289 14.4251 90.7289 13.6835H96.2773C96.2408 14.3115 96.1497 14.9299 96.0131 15.5077C95.5302 17.4095 94.1545 19.0074 92.3324 19.7464C90.2461 20.5894 87.9684 21.0809 85.5632 21.0809C83.7047 21.0809 81.9008 20.7991 80.2244 20.2882C77.6552 19.5077 75.4322 17.7196 74.5485 15.2901Z" fill="#8094B0"/>
</g>
<defs>
<clipPath id="clip0">
<rect width="130" height="21" fill="white" transform="translate(0 0.5)"/>
</clipPath>
</defs>
</svg>
