<svg width="43" height="43" viewBox="0 0 43 43" fill="none" xmlns="http://www.w3.org/2000/svg">
<path d="M41.5456 17.9594C41.5456 16.9411 41.0944 16.0267 40.3821 15.4038C41.0944 14.781 41.5456 13.8667 41.5456 12.8483C41.5456 10.9762 40.0224 9.45295 38.1502 9.45295H37.4211C37.0176 9.45295 36.634 9.53895 36.2867 9.69255V3.21501C36.2868 1.44226 34.8445 0 33.0718 0H18.9296C17.1568 0 15.7146 1.44226 15.7146 3.21501V9.944C14.8638 8.99943 13.7291 8.33637 12.3992 8.07401C11.312 7.86085 10.274 8.72547 10.274 9.82953V20.1325C10.274 21.431 10.043 22.6975 9.58722 23.8967C8.86798 25.7895 8.01462 28.6543 7.96431 31.6855L5.61938 34.847C5.51213 34.9917 5.4541 35.1671 5.4541 35.3473V42.1602C5.4541 42.624 5.83018 43 6.29395 43H19.4771C19.7248 43 19.9599 42.8907 20.1195 42.7011L22.9992 39.2813C24.3709 39.1236 29.2654 38.3738 31.9598 35.5034H33.0718C34.8445 35.5034 36.2868 34.0611 36.2868 32.2884V31.3371C36.6341 31.4907 37.0176 31.5767 37.4212 31.5767H38.1503C40.0225 31.5767 41.5457 30.0536 41.5457 28.1813C41.5457 27.163 41.0945 26.2486 40.3822 25.6258C41.0945 25.003 41.5457 24.0886 41.5457 23.0703C41.5457 22.0519 41.0945 21.1376 40.3822 20.5148C41.0944 19.892 41.5456 18.9777 41.5456 17.9594ZM37.4212 11.1327H38.1503C39.0964 11.1327 39.866 11.9023 39.866 12.8484C39.866 13.7944 39.0964 14.5641 38.1503 14.5641H37.4212C36.7957 14.5641 36.2868 14.0551 36.2868 13.4297V12.2672C36.2868 11.6416 36.7957 11.1327 37.4212 11.1327ZM27.5819 1.67969V1.86538C27.5819 2.73302 26.876 3.43891 26.0084 3.43891C25.1407 3.43891 24.4349 2.73302 24.4349 1.86538V1.67969H27.5819ZM34.6071 32.2885C34.6071 33.135 33.9183 33.8238 33.0718 33.8238H18.9296C18.083 33.8238 17.3942 33.135 17.3942 32.2885V27.8687C17.3942 27.4049 17.0182 27.0289 16.5544 27.0289C16.0906 27.0289 15.7146 27.4049 15.7146 27.8687V32.2885C15.7146 34.0612 17.1568 35.5036 18.9295 35.5036H29.3262C26.5112 37.3003 22.5579 37.6389 22.5102 37.6427C22.2862 37.6604 22.0785 37.767 21.9337 37.939L19.0863 41.3203H7.13387V35.6248L9.47645 32.4665C9.5837 32.3218 9.64173 32.1464 9.64173 31.9662C9.64173 29.0866 10.466 26.3131 11.1575 24.4935C11.6859 23.103 11.9538 21.6358 11.9538 20.1326V9.82953C11.9538 9.76671 12.0108 9.70969 12.0751 9.72212C14.252 10.1515 15.7146 12.0979 15.7146 14.5654V29.4785C15.7146 29.9423 16.0906 32.3183 16.5544 32.3183C17.0182 32.3183 17.3942 29.9423 17.3942 29.4785V14.5654V3.21501C17.3942 2.36844 18.083 1.67969 18.9296 1.67969H22.7551V1.86538C22.7551 3.6592 24.2145 5.1186 26.0083 5.1186C27.8021 5.1186 29.2615 3.6592 29.2615 1.86538V1.67969H33.0717C33.9183 1.67969 34.607 2.36844 34.607 3.21501L34.6071 32.2885ZM39.8659 28.1815C39.8659 29.1275 39.0963 29.8972 38.1502 29.8972H37.4211C36.7956 29.8972 36.2867 29.3882 36.2867 28.7628V27.6003C36.2867 26.9748 36.7956 26.4659 37.4211 26.4659H38.1502C39.0963 26.4657 39.8659 27.2355 39.8659 28.1815ZM39.8659 23.0704C39.8659 24.0164 39.0963 24.7861 38.1502 24.7861H37.4211C36.7956 24.7861 36.2867 24.2771 36.2867 23.6517V22.4892C36.2867 21.8637 36.7956 21.3548 37.4211 21.3548H38.1502C39.0963 21.3548 39.8659 22.1244 39.8659 23.0704ZM37.4212 19.6751C36.7957 19.6751 36.2868 19.1662 36.2868 18.5407V17.3782C36.2868 16.7527 36.7957 16.2438 37.4212 16.2438H38.1503C39.0964 16.2438 39.866 17.0135 39.866 17.9596C39.866 18.9056 39.0964 19.6752 38.1503 19.6752L37.4212 19.6751Z" fill="#273B61"/>
<path d="M28.0019 24.0652H23.99C22.3887 24.0652 21.0859 25.3679 21.0859 26.9693C21.0859 28.5706 22.3887 29.8734 23.99 29.8734H28.0019C29.6032 29.8734 30.906 28.5706 30.906 26.9693C30.906 25.3679 29.6033 24.0652 28.0019 24.0652ZM28.0019 28.1936H23.99C23.3149 28.1936 22.7656 27.6443 22.7656 26.9692C22.7656 26.294 23.3149 25.7448 23.99 25.7448H28.0019C28.677 25.7448 29.2263 26.294 29.2263 26.9692C29.2263 27.6443 28.677 28.1936 28.0019 28.1936Z" fill="url(#paint0_linear)"/>
<path d="M19 14.6072L20.758 13.9693L22.1754 10.9897C22.4352 10.4346 23.1118 10 23.7167 10H33V18.5417H31.3129C31.1258 19.3755 30.3904 20 29.5137 20C28.637 20 27.9016 19.3755 27.7144 18.5417H24.2856C24.0984 19.3755 23.363 20 22.4863 20C21.6096 20 20.8742 19.3755 20.6871 18.5417H19V14.6072ZM21.7079 13.8876H24.6859L25.3449 12.5H22.368L21.7079 13.8876ZM23.7167 10.8333C23.4233 10.8333 23.0415 11.0788 22.9159 11.3482L22.7644 11.6667H32.1797V10.8333H23.7167ZM29.5137 19.1667C30.0791 19.1667 30.5391 18.6994 30.5391 18.125C30.5391 17.5506 30.0791 17.0833 29.5137 17.0833C28.9482 17.0833 28.4883 17.5506 28.4883 18.125C28.4883 18.6994 28.9482 19.1667 29.5137 19.1667ZM22.4863 19.1667C23.0518 19.1667 23.5117 18.6994 23.5117 18.125C23.5117 17.5506 23.0518 17.0833 22.4863 17.0833C21.9209 17.0833 21.4609 17.5506 21.4609 18.125C21.4609 18.6994 21.9209 19.1667 22.4863 19.1667ZM19.8203 17.7083H20.6871C20.8742 16.8745 21.6096 16.25 22.4863 16.25C23.363 16.25 24.0984 16.8745 24.2856 17.7083H27.7144C27.9016 16.8745 28.637 16.25 29.5137 16.25C30.3904 16.25 31.1258 16.8745 31.3129 17.7083H32.1797V12.5H26.2557L25.2009 14.7209H21.1253L19.8203 15.1944V17.7083Z" fill="url(#paint1_linear)"/>
<defs>
<linearGradient id="paint0_linear" x1="21.1245" y1="24.0652" x2="31.6579" y2="27.6857" gradientUnits="userSpaceOnUse">
<stop stop-color="#E67841"/>
<stop offset="1" stop-color="#FF9F6F"/>
</linearGradient>
<linearGradient id="paint1_linear" x1="32.945" y1="10" x2="17.4121" y2="14.4209" gradientUnits="userSpaceOnUse">
<stop stop-color="#E67841"/>
<stop offset="1" stop-color="#FF9F6F"/>
</linearGradient>
</defs>
</svg>
