<svg width="20" height="20" viewBox="0 0 20 20" fill="none" xmlns="http://www.w3.org/2000/svg">
<g clip-path="url(#clip0)">
<path d="M19.4804 11.1664L19.1085 10.6514C18.7979 10.2263 18.7938 9.65005 19.0962 9.2168L19.46 8.69772C19.8851 8.09281 19.6848 7.25492 19.039 6.90342L18.4831 6.60096C18.0213 6.35164 17.7679 5.83256 17.8578 5.31348L17.9641 4.68404C18.0867 3.95651 17.5472 3.28212 16.8115 3.25351L16.182 3.2249C15.6588 3.20446 15.2093 2.84478 15.0621 2.33796L14.8864 1.72488C14.682 1.0137 13.9054 0.645843 13.2351 0.940125L12.6547 1.19353C12.1724 1.40198 11.6125 1.27937 11.2651 0.882903L10.8441 0.408783C10.3536 -0.142996 9.49528 -0.134821 9.01707 0.421044L8.60426 0.90334C8.26093 1.2998 7.70507 1.43468 7.21869 1.23441L6.63421 0.993259C5.95573 0.711239 5.18732 1.09135 4.99114 1.80662L4.82356 2.41971C4.68051 2.9347 4.235 3.29847 3.71592 3.32708L3.08648 3.36386C2.35486 3.40473 1.82352 4.0873 1.9584 4.81075L2.07284 5.4361C2.16685 5.95518 1.92162 6.47834 1.46384 6.73175L0.912065 7.04238C0.270367 7.40206 0.0864414 8.24403 0.519689 8.84077L0.891629 9.35576C1.20226 9.78084 1.20635 10.3571 0.903891 10.7904L0.531951 11.3136C0.106878 11.9185 0.307153 12.7564 0.952938 13.1079L1.5088 13.4103C1.97066 13.6596 2.22407 14.1787 2.13415 14.6978L2.03197 15.3191C1.90935 16.0466 2.44887 16.721 3.18457 16.7496L3.81401 16.7782C4.33718 16.7986 4.78677 17.1583 4.93392 17.6651L5.10967 18.2782C5.31403 18.9894 6.09061 19.3573 6.76091 19.063L7.3413 18.8096C7.8236 18.6011 8.38355 18.7237 8.73097 19.1161L9.15195 19.5902C9.64242 20.142 10.5007 20.1338 10.979 19.578L11.3918 19.0957C11.7351 18.6992 12.291 18.5643 12.7773 18.7646L13.3618 19.0058C14.0403 19.2878 14.8087 18.9077 15.0049 18.1924L15.1725 17.5793C15.3114 17.0725 15.7569 16.7087 16.2801 16.676L16.9095 16.6392C17.6412 16.5984 18.1725 15.9158 18.0376 15.1883L17.9232 14.5629C17.8292 14.0438 18.0744 13.5207 18.5322 13.2673L19.084 12.9566C19.7297 12.6092 19.9137 11.7632 19.4804 11.1664ZM9.99801 16.0834C6.63012 16.0834 3.89984 13.3327 3.89984 9.94024C3.89984 6.54783 6.63012 3.79302 9.99801 3.79302C13.3659 3.79302 16.0962 6.54374 16.0962 9.93615C16.0962 13.3286 13.3659 16.0834 9.99801 16.0834Z" fill="#273B61"/>
<path d="M13.5822 8.38718L11.3015 8.2196L10.4391 6.08606C10.2756 5.68551 9.71155 5.68551 9.55215 6.08606L8.68974 8.2196L6.40906 8.38718C5.9799 8.41987 5.80415 8.95939 6.13522 9.23732L7.88047 10.721L7.33278 12.9567C7.2306 13.3777 7.68428 13.7129 8.05213 13.484L9.99357 12.2701L11.935 13.484C12.2988 13.7129 12.7565 13.3777 12.6544 12.9567L12.1067 10.721L13.8519 9.23732C14.1871 8.95939 14.0113 8.41987 13.5822 8.38718Z" fill="#273B61"/>
</g>
<defs>
<clipPath id="clip0">
<rect width="20" height="20" fill="white"/>
</clipPath>
</defs>
</svg>
