<svg width="242" height="76" viewBox="0 0 242 76" fill="none" xmlns="http://www.w3.org/2000/svg">
<g filter="url(#filter0_d)">
<path d="M146.984 53V50.6953H142.297V48.7734L147.266 41.5H149.109V48.7656H150.531V50.6953H149.109V53H146.984ZM146.984 48.7656V44.8516L144.352 48.7656H146.984ZM152.055 53V50.8047H154.25V53H152.055ZM156.086 50.3516L158.211 50.1172C158.263 50.5495 158.398 50.8698 158.617 51.0781C158.836 51.2865 159.125 51.3906 159.484 51.3906C159.938 51.3906 160.323 51.1823 160.641 50.7656C160.958 50.349 161.161 49.4844 161.25 48.1719C160.698 48.8125 160.008 49.1328 159.18 49.1328C158.279 49.1328 157.5 48.7865 156.844 48.0938C156.193 47.3958 155.867 46.4896 155.867 45.375C155.867 44.2135 156.211 43.2786 156.898 42.5703C157.591 41.8568 158.471 41.5 159.539 41.5C160.701 41.5 161.654 41.9505 162.398 42.8516C163.143 43.7474 163.516 45.224 163.516 47.2812C163.516 49.375 163.128 50.8854 162.352 51.8125C161.576 52.7396 160.565 53.2031 159.32 53.2031C158.424 53.2031 157.701 52.9661 157.148 52.4922C156.596 52.013 156.242 51.2995 156.086 50.3516ZM161.055 45.5547C161.055 44.8464 160.891 44.2969 160.562 43.9062C160.24 43.5156 159.865 43.3203 159.438 43.3203C159.031 43.3203 158.693 43.4818 158.422 43.8047C158.156 44.1224 158.023 44.6458 158.023 45.375C158.023 46.1146 158.169 46.6589 158.461 47.0078C158.753 47.3516 159.117 47.5234 159.555 47.5234C159.977 47.5234 160.331 47.3568 160.617 47.0234C160.909 46.6901 161.055 46.2005 161.055 45.5547ZM169.25 48.8516C169.25 47.3151 169.677 46.1771 170.531 45.4375C171.245 44.8229 172.115 44.5156 173.141 44.5156C174.281 44.5156 175.214 44.8906 175.938 45.6406C176.661 46.3854 177.023 47.4167 177.023 48.7344C177.023 49.8021 176.862 50.6432 176.539 51.2578C176.221 51.8672 175.755 52.3411 175.141 52.6797C174.531 53.0182 173.865 53.1875 173.141 53.1875C171.979 53.1875 171.039 52.8151 170.32 52.0703C169.607 51.3255 169.25 50.2526 169.25 48.8516ZM170.695 48.8516C170.695 49.9141 170.927 50.7109 171.391 51.2422C171.854 51.7682 172.438 52.0312 173.141 52.0312C173.839 52.0312 174.419 51.7656 174.883 51.2344C175.346 50.7031 175.578 49.8932 175.578 48.8047C175.578 47.7786 175.344 47.0026 174.875 46.4766C174.411 45.9453 173.833 45.6797 173.141 45.6797C172.438 45.6797 171.854 45.9427 171.391 46.4688C170.927 46.9948 170.695 47.7891 170.695 48.8516ZM184.117 53V51.7812C183.471 52.7188 182.594 53.1875 181.484 53.1875C180.995 53.1875 180.536 53.0938 180.109 52.9062C179.688 52.7188 179.372 52.4844 179.164 52.2031C178.961 51.9167 178.818 51.5677 178.734 51.1562C178.677 50.8802 178.648 50.4427 178.648 49.8438V44.7031H180.055V49.3047C180.055 50.0391 180.083 50.5339 180.141 50.7891C180.229 51.1589 180.417 51.4505 180.703 51.6641C180.99 51.8724 181.344 51.9766 181.766 51.9766C182.188 51.9766 182.583 51.8698 182.953 51.6562C183.323 51.4375 183.583 51.1432 183.734 50.7734C183.891 50.3984 183.969 49.8568 183.969 49.1484V44.7031H185.375V53H184.117ZM190.656 51.7422L190.859 52.9844C190.464 53.0677 190.109 53.1094 189.797 53.1094C189.286 53.1094 188.891 53.0286 188.609 52.8672C188.328 52.7057 188.13 52.4948 188.016 52.2344C187.901 51.9688 187.844 51.4141 187.844 50.5703V45.7969H186.812V44.7031H187.844V42.6484L189.242 41.8047V44.7031H190.656V45.7969H189.242V50.6484C189.242 51.0495 189.266 51.3073 189.312 51.4219C189.365 51.5365 189.445 51.6276 189.555 51.6953C189.669 51.763 189.831 51.7969 190.039 51.7969C190.195 51.7969 190.401 51.7786 190.656 51.7422ZM195.969 48.8516C195.969 47.3151 196.396 46.1771 197.25 45.4375C197.964 44.8229 198.833 44.5156 199.859 44.5156C201 44.5156 201.932 44.8906 202.656 45.6406C203.38 46.3854 203.742 47.4167 203.742 48.7344C203.742 49.8021 203.581 50.6432 203.258 51.2578C202.94 51.8672 202.474 52.3411 201.859 52.6797C201.25 53.0182 200.583 53.1875 199.859 53.1875C198.698 53.1875 197.758 52.8151 197.039 52.0703C196.326 51.3255 195.969 50.2526 195.969 48.8516ZM197.414 48.8516C197.414 49.9141 197.646 50.7109 198.109 51.2422C198.573 51.7682 199.156 52.0312 199.859 52.0312C200.557 52.0312 201.138 51.7656 201.602 51.2344C202.065 50.7031 202.297 49.8932 202.297 48.8047C202.297 47.7786 202.062 47.0026 201.594 46.4766C201.13 45.9453 200.552 45.6797 199.859 45.6797C199.156 45.6797 198.573 45.9427 198.109 46.4688C197.646 46.9948 197.414 47.7891 197.414 48.8516ZM205.734 53V45.7969H204.492V44.7031H205.734V43.8203C205.734 43.263 205.784 42.849 205.883 42.5781C206.018 42.2135 206.255 41.9193 206.594 41.6953C206.938 41.4661 207.417 41.3516 208.031 41.3516C208.427 41.3516 208.865 41.3984 209.344 41.4922L209.133 42.7188C208.841 42.6667 208.565 42.6406 208.305 42.6406C207.878 42.6406 207.576 42.7318 207.398 42.9141C207.221 43.0964 207.133 43.4375 207.133 43.9375V44.7031H208.75V45.7969H207.133V53H205.734ZM213.914 50L215.391 49.875C215.5 50.5938 215.753 51.1354 216.148 51.5C216.549 51.8594 217.031 52.0391 217.594 52.0391C218.271 52.0391 218.844 51.7839 219.312 51.2734C219.781 50.763 220.016 50.0859 220.016 49.2422C220.016 48.4401 219.789 47.8073 219.336 47.3438C218.888 46.8802 218.299 46.6484 217.57 46.6484C217.117 46.6484 216.708 46.7526 216.344 46.9609C215.979 47.1641 215.693 47.4297 215.484 47.7578L214.164 47.5859L215.273 41.7031H220.969V43.0469H216.398L215.781 46.125C216.469 45.6458 217.19 45.4062 217.945 45.4062C218.945 45.4062 219.789 45.7526 220.477 46.4453C221.164 47.138 221.508 48.0286 221.508 49.1172C221.508 50.1536 221.206 51.0495 220.602 51.8047C219.867 52.7318 218.865 53.1953 217.594 53.1953C216.552 53.1953 215.701 52.9036 215.039 52.3203C214.383 51.737 214.008 50.9635 213.914 50Z" fill="#222222"/>
</g>
<path d="M15.798 49.7391L16.2264 51.0076L12.7083 51.8783L15.798 49.7391Z" fill="#00B67A"/>
<path fill-rule="evenodd" clip-rule="evenodd" d="M24.1481 37H1V59H24.1481V37ZM20.8045 46.2778H14.614L12.7083 40.6667L10.7914 46.2778L4.60081 46.2671L9.6074 49.7391L7.69046 55.3503L12.697 51.8783L17.7036 55.3503L15.798 49.7391L20.8045 46.2778Z" fill="#00B67A"/>
<path d="M41.2609 49.7391L41.6894 51.0076L38.1713 51.8783L41.2609 49.7391Z" fill="#00B67A"/>
<path fill-rule="evenodd" clip-rule="evenodd" d="M49.6111 37H26.463V59H49.6111V37ZM46.2675 46.2778H40.0769L38.1713 40.6667L36.2543 46.2778L30.0638 46.2671L35.0704 49.7391L33.1534 55.3503L38.16 51.8783L43.1666 55.3503L41.2609 49.7391L46.2675 46.2778Z" fill="#00B67A"/>
<path d="M66.7239 49.7391L67.1524 51.0076L63.6342 51.8783L66.7239 49.7391Z" fill="#00B67A"/>
<path fill-rule="evenodd" clip-rule="evenodd" d="M75.0741 37H51.9259V59H75.0741V37ZM71.7304 46.2778H65.5399L63.6342 40.6667L61.7173 46.2778L55.5267 46.2671L60.5333 49.7391L58.6164 55.3503L63.623 51.8783L68.6295 55.3503L66.7239 49.7391L71.7304 46.2778Z" fill="#00B67A"/>
<path d="M92.1868 49.7391L92.6153 51.0076L89.0972 51.8783L92.1868 49.7391Z" fill="#00B67A"/>
<path fill-rule="evenodd" clip-rule="evenodd" d="M100.537 37H77.3889V59H100.537V37ZM97.1934 46.2778H91.0028L89.0972 40.6667L87.1803 46.2778L80.9897 46.2671L85.9963 49.7391L84.0793 55.3503L89.0859 51.8783L94.0925 55.3503L92.1868 49.7391L97.1934 46.2778Z" fill="#00B67A"/>
<path d="M117.65 49.7391L118.078 51.0076L114.56 51.8783L117.65 49.7391Z" fill="#00B67A"/>
<path fill-rule="evenodd" clip-rule="evenodd" d="M126 37H102.852V59H126V37ZM122.656 46.2778H116.466L114.56 40.6667L112.643 46.2778L106.453 46.2671L111.459 49.7391L109.542 55.3503L114.549 51.8783L119.555 55.3503L117.65 49.7391L122.656 46.2778Z" fill="#00B67A"/>
<path d="M31.7786 10.8887H43.8179V13.0367H39.0775V25.1453H36.4793V13.0367H31.7588L31.7786 10.8887ZM43.3022 14.8235H45.5236V16.8194H45.5633C45.6426 16.5343 45.7814 16.2682 45.9798 16.002C46.1781 15.7359 46.4161 15.4888 46.7137 15.2797C46.9913 15.0516 47.3087 14.8805 47.6657 14.7475C48.0029 14.6144 48.3599 14.5384 48.7169 14.5384C48.9946 14.5384 49.1929 14.5574 49.2921 14.5574C49.3912 14.5764 49.5103 14.5954 49.6094 14.5954V16.7814C49.4507 16.7434 49.2722 16.7244 49.0937 16.7054C48.9152 16.6864 48.7566 16.6674 48.578 16.6674C48.1814 16.6674 47.8045 16.7434 47.4475 16.8955C47.0905 17.0475 46.793 17.2756 46.5153 17.5608C46.2575 17.8649 46.0393 18.2261 45.8806 18.6633C45.722 19.1005 45.6426 19.6137 45.6426 20.184V25.0883H43.2625L43.3022 14.8235ZM58.1777 25.1453V23.7006H58.1381C57.8405 24.2329 57.4042 24.6321 56.829 24.9552C56.2538 25.2784 55.6588 25.4304 55.0638 25.4304C53.6556 25.4304 52.6242 25.1073 51.9895 24.423C51.3548 23.7576 51.0375 22.7312 51.0375 21.3815V14.8235H53.4175V21.1534C53.4175 22.0659 53.5961 22.7122 53.9729 23.0733C54.3299 23.4535 54.8456 23.6436 55.5001 23.6436C55.996 23.6436 56.4125 23.5676 56.7497 23.4155C57.0869 23.2634 57.3645 23.0733 57.5629 22.8262C57.781 22.5791 57.9199 22.275 58.0191 21.9328C58.1182 21.5906 58.1579 21.2105 58.1579 20.8113V14.8235H60.538V25.1453H58.1777ZM64.5643 21.8377C64.6436 22.5031 64.9015 22.9593 65.3576 23.2444C65.8138 23.5105 66.3692 23.6436 67.0039 23.6436C67.222 23.6436 67.4799 23.6246 67.7576 23.5866C68.0352 23.5485 68.3129 23.4915 68.5509 23.3965C68.8088 23.3014 69.0071 23.1684 69.1658 22.9783C69.3245 22.7882 69.4038 22.5601 69.384 22.275C69.3641 21.9898 69.2649 21.7427 69.0468 21.5526C68.8286 21.3625 68.5708 21.2295 68.2534 21.0964C67.9361 20.9824 67.5592 20.8873 67.1427 20.8113C66.7262 20.7352 66.3097 20.6402 65.8733 20.5452C65.437 20.4501 65.0006 20.3361 64.5841 20.203C64.1676 20.0699 63.8106 19.8989 63.4734 19.6517C63.1561 19.4236 62.8784 19.1385 62.6999 18.7773C62.5015 18.4162 62.4024 17.998 62.4024 17.4657C62.4024 16.8955 62.5412 16.4392 62.8387 16.0591C63.1164 15.6789 63.4932 15.3748 63.9296 15.1466C64.3659 14.9185 64.8618 14.7475 65.3973 14.6524C65.9328 14.5574 66.4485 14.5194 66.9245 14.5194C67.4799 14.5194 68.0154 14.5764 68.5113 14.6904C69.0071 14.8045 69.4831 14.9756 69.8798 15.2417C70.2963 15.4888 70.6335 15.831 70.8913 16.2301C71.169 16.6293 71.3277 17.1236 71.407 17.6938H68.9278C68.8088 17.1426 68.5509 16.7814 68.1542 16.5913C67.7377 16.4012 67.2815 16.3062 66.746 16.3062C66.5874 16.3062 66.3692 16.3252 66.151 16.3442C65.913 16.3822 65.7147 16.4202 65.4965 16.4963C65.2981 16.5723 65.1196 16.6864 64.9808 16.8194C64.842 16.9525 64.7626 17.1426 64.7626 17.3707C64.7626 17.6558 64.8618 17.8649 65.0601 18.036C65.2585 18.2071 65.5163 18.3401 65.8535 18.4732C66.1708 18.5872 66.5477 18.6823 66.9642 18.7583C67.3807 18.8344 67.8171 18.9294 68.2534 19.0244C68.6898 19.1195 69.1063 19.2335 69.5228 19.3666C69.9393 19.4997 70.3162 19.6707 70.6335 19.9179C70.9508 20.146 71.2285 20.4311 71.4269 20.7733C71.6252 21.1154 71.7244 21.5526 71.7244 22.0468C71.7244 22.6551 71.5855 23.1684 71.288 23.6056C70.9905 24.0238 70.6137 24.3849 70.1575 24.6511C69.7013 24.9172 69.1658 25.1073 68.6104 25.2403C68.0352 25.3544 67.4799 25.4304 66.9245 25.4304C66.2502 25.4304 65.6155 25.3544 65.0403 25.2023C64.4651 25.0502 63.9494 24.8221 63.5329 24.537C63.1164 24.2329 62.7792 23.8717 62.5412 23.4155C62.3032 22.9783 62.1644 22.446 62.1445 21.8187H64.5444V21.8377H64.5643ZM72.3987 14.8235H74.2036V11.706H76.5837V14.8045H78.7258V16.4963H76.5837V22.0088C76.5837 22.2559 76.6035 22.446 76.6234 22.6361C76.6432 22.8072 76.7027 22.9593 76.7622 23.0733C76.8415 23.1874 76.9606 23.2824 77.0994 23.3395C77.2581 23.3965 77.4564 23.4345 77.7341 23.4345C77.8927 23.4345 78.0713 23.4345 78.2299 23.4155C78.3886 23.3965 78.5671 23.3775 78.7258 23.3395V25.1073C78.4679 25.1453 78.2101 25.1643 77.9523 25.1833C77.6944 25.2213 77.4564 25.2213 77.1787 25.2213C76.544 25.2213 76.0482 25.1643 75.6713 25.0502C75.2945 24.9362 74.997 24.7651 74.7788 24.556C74.5606 24.3279 74.4218 24.0618 74.3425 23.7386C74.2631 23.4155 74.2235 23.0163 74.2036 22.5981V16.5153H72.3987V14.7855V14.8235ZM80.3918 14.8235H82.6331V16.2301H82.6728C83.0099 15.6219 83.4661 15.2037 84.0611 14.9375C84.6562 14.6714 85.2909 14.5384 86.0049 14.5384C86.8577 14.5384 87.5916 14.6714 88.2263 14.9756C88.861 15.2607 89.3767 15.6409 89.7932 16.1541C90.2097 16.6483 90.527 17.2376 90.7254 17.9029C90.9237 18.5682 91.0427 19.2906 91.0427 20.0319C91.0427 20.7352 90.9435 21.4005 90.765 22.0468C90.5667 22.6931 90.289 23.2824 89.9122 23.7767C89.5353 24.2709 89.0593 24.6701 88.4643 24.9742C87.8693 25.2783 87.1949 25.4304 86.4016 25.4304C86.0644 25.4304 85.7074 25.3924 85.3702 25.3354C85.033 25.2784 84.6958 25.1833 84.3785 25.0502C84.0611 24.9172 83.7636 24.7461 83.5058 24.537C83.2281 24.3279 83.0099 24.0808 82.8314 23.8147H82.7918V28.9661H80.4117V14.8235H80.3918ZM88.7023 19.9939C88.7023 19.5377 88.6428 19.0815 88.504 18.6443C88.385 18.2071 88.1866 17.8269 87.9288 17.4847C87.6709 17.1426 87.3536 16.8765 86.9966 16.6674C86.6197 16.4583 86.1834 16.3632 85.7074 16.3632C84.7157 16.3632 83.962 16.6864 83.4463 17.3517C82.9504 18.017 82.6926 18.9104 82.6926 20.0129C82.6926 20.5452 82.7521 21.0204 82.8909 21.4576C83.0298 21.8948 83.2083 22.275 83.4859 22.5981C83.7438 22.9213 84.0611 23.1684 84.438 23.3585C84.8148 23.5485 85.2313 23.6436 85.7272 23.6436C86.2825 23.6436 86.7189 23.5295 87.0957 23.3204C87.4726 23.1113 87.7701 22.8262 88.0279 22.5031C88.266 22.1609 88.4445 21.7807 88.5436 21.3435C88.6428 20.8873 88.7023 20.4501 88.7023 19.9939ZM92.8873 10.8887H95.2674V13.0367H92.8873V10.8887ZM92.8873 14.8235H95.2674V25.1453H92.8873V14.8235ZM97.3896 10.8887H99.7697V25.1453H97.3896V10.8887ZM107.029 25.4304C106.176 25.4304 105.403 25.2974 104.728 25.0122C104.054 24.7271 103.498 24.3659 103.022 23.8907C102.566 23.4155 102.209 22.8262 101.971 22.1609C101.733 21.4956 101.594 20.7542 101.594 19.9749C101.594 19.1955 101.713 18.4732 101.971 17.8079C102.209 17.1426 102.566 16.5723 103.022 16.0781C103.479 15.6029 104.054 15.2227 104.728 14.9566C105.403 14.6904 106.176 14.5384 107.029 14.5384C107.882 14.5384 108.655 14.6714 109.33 14.9566C110.004 15.2227 110.559 15.6029 111.035 16.0781C111.492 16.5533 111.849 17.1426 112.087 17.8079C112.325 18.4732 112.463 19.1955 112.463 19.9749C112.463 20.7733 112.344 21.4956 112.087 22.1609C111.829 22.8262 111.492 23.3965 111.035 23.8907C110.579 24.3659 110.004 24.7461 109.33 25.0122C108.655 25.2783 107.902 25.4304 107.029 25.4304ZM107.029 23.6246C107.545 23.6246 108.021 23.5105 108.397 23.3014C108.794 23.0923 109.092 22.8072 109.35 22.465C109.607 22.1229 109.786 21.7237 109.905 21.3055C110.024 20.8683 110.083 20.4311 110.083 19.9749C110.083 19.5377 110.024 19.1005 109.905 18.6633C109.786 18.2261 109.607 17.8459 109.35 17.5037C109.092 17.1616 108.774 16.8955 108.397 16.6864C108.001 16.4773 107.545 16.3632 107.029 16.3632C106.513 16.3632 106.037 16.4773 105.66 16.6864C105.264 16.8955 104.966 17.1806 104.708 17.5037C104.451 17.8459 104.272 18.2261 104.153 18.6633C104.034 19.1005 103.975 19.5377 103.975 19.9749C103.975 20.4311 104.034 20.8683 104.153 21.3055C104.272 21.7427 104.451 22.1229 104.708 22.465C104.966 22.8072 105.284 23.0923 105.66 23.3014C106.057 23.5295 106.513 23.6246 107.029 23.6246ZM113.177 14.8235H114.982V11.706H117.362V14.8045H119.505V16.4963H117.362V22.0088C117.362 22.2559 117.382 22.446 117.402 22.6361C117.422 22.8072 117.481 22.9593 117.541 23.0733C117.62 23.1874 117.739 23.2824 117.878 23.3395C118.037 23.3965 118.235 23.4345 118.513 23.4345C118.672 23.4345 118.85 23.4345 119.009 23.4155C119.167 23.3965 119.346 23.3775 119.505 23.3395V25.1073C119.247 25.1453 118.989 25.1643 118.731 25.1833C118.473 25.2213 118.235 25.2213 117.958 25.2213C117.323 25.2213 116.827 25.1643 116.45 25.0502C116.073 24.9362 115.776 24.7651 115.558 24.556C115.339 24.3279 115.201 24.0618 115.121 23.7386C115.042 23.4155 115.002 23.0163 114.982 22.5981V16.5153H113.177V14.7855V14.8235Z" fill="#191919"/>
<path d="M17.6126 9.92261H28.5015L14.2607 19.8262L20.4489 18.2865L19.6956 16.0446L23.0472 25.9661L14.2408 19.8262L5.43453 25.9661L8.80631 16.0434L0 9.9036L10.8889 9.92261L14.2607 0L17.6126 9.92261Z" fill="#00B67A"/>
<defs>
<filter id="filter0_d" x="122.297" y="23.3516" width="119.211" height="51.8516" filterUnits="userSpaceOnUse" color-interpolation-filters="sRGB">
<feFlood flood-opacity="0" result="BackgroundImageFix"/>
<feColorMatrix in="SourceAlpha" type="matrix" values="0 0 0 0 0 0 0 0 0 0 0 0 0 0 0 0 0 0 127 0"/>
<feOffset dy="2"/>
<feGaussianBlur stdDeviation="10"/>
<feColorMatrix type="matrix" values="0 0 0 0 0 0 0 0 0 0 0 0 0 0 0 0 0 0 0.12 0"/>
<feBlend mode="normal" in2="BackgroundImageFix" result="effect1_dropShadow"/>
<feBlend mode="normal" in="SourceGraphic" in2="effect1_dropShadow" result="shape"/>
</filter>
</defs>
</svg>
