<svg width="119" height="22" viewBox="0 0 119 22" fill="none" xmlns="http://www.w3.org/2000/svg">
<path d="M15.7173 10.3572C15.6674 9.59894 15.4678 8.8407 15.0686 8.18356L11.6757 2.16817C11.4262 1.71323 11.2266 1.20773 11.1268 0.70224L10.9771 0.954987C10.1289 2.42092 10.1289 4.29125 10.9771 5.75718L13.7214 10.5594C14.5696 12.0253 14.5696 13.8956 13.7214 15.3616L13.5717 15.6143C13.4719 15.1088 13.2723 14.6033 13.0229 14.1484L10.5281 9.75059L8.93139 6.91982C8.68191 6.46488 8.48233 5.95938 8.38254 5.45389L8.23285 5.70664C7.38462 7.17257 7.38462 8.99235 8.23285 10.5088L10.9771 15.311C11.8254 16.777 11.8254 18.6473 10.9771 20.1132L10.8274 20.366C10.7277 19.8605 10.5281 19.355 10.2786 18.9L6.83576 12.8847C6.38669 12.0759 6.18711 11.166 6.18711 10.2561C2.5447 11.2165 0 13.2891 0 15.6649C0 19.0011 4.88981 21.6803 10.9272 21.6803C16.9647 21.6803 21.8545 19.0011 21.8545 15.6649C21.9044 13.3902 19.4096 11.3176 15.7173 10.3572ZM26.0457 20.6187C26.0956 19.7594 26.1954 19.2033 26.4449 18.4956C27.5925 19.0517 29.0894 19.3044 30.1871 19.3044C32.0832 19.3044 33.1809 18.6978 33.1809 17.4341C33.1809 16.2209 32.3825 15.6649 30.4865 14.8055L29.4387 14.4011C27.4927 13.5418 26.1954 12.4297 26.1954 10.2561C26.1954 7.88026 27.842 6.36378 31.1351 6.36378C32.4823 6.36378 33.7297 6.56598 34.8773 6.97037C34.8274 7.77916 34.6778 8.43631 34.4782 9.0429C33.3805 8.6385 32.0333 8.43631 31.0852 8.43631C29.289 8.43631 28.4906 9.144 28.4906 10.2561C28.4906 11.3176 29.289 11.9748 30.736 12.5814L31.8337 13.0363C34.4283 14.1484 35.526 15.3616 35.526 17.3836C35.526 19.7594 33.7297 21.4275 30.237 21.4275C28.5904 21.4275 27.1933 21.1748 26.0457 20.6187ZM46.553 10.6605V21.0737H44.4574L44.3576 19.8099C43.7588 20.7198 42.9106 21.3264 41.4636 21.3264C38.7692 21.3264 36.9231 19.3044 36.9231 15.8165C36.9231 12.177 38.869 10.0539 42.6611 10.0539C44.158 10.1044 45.4054 10.2561 46.553 10.6605ZM44.3077 18.6978V12.177C43.8586 12.0759 43.3098 12.0759 42.6611 12.0759C40.316 12.0759 39.2183 13.5418 39.2183 15.8671C39.2183 17.9902 40.0665 19.5066 42.0624 19.5066C43.0104 19.4561 43.7089 19.1528 44.3077 18.6978ZM58.1289 14.0978V21.0737H55.8836V14.5022C55.8836 12.8341 55.3347 12.0759 53.0894 12.0759C52.5405 12.0759 51.9418 12.1264 51.2931 12.2275V21.0737H49.0478V10.6605C50.4948 10.3066 52.0915 10.0539 53.1393 10.0539C56.9314 10.1044 58.1289 11.5704 58.1289 14.0978ZM64.4158 19.4055C65.0645 19.4055 65.7131 19.3044 66.1622 19.1022C66.1123 19.7088 66.0125 20.4165 65.9127 21.0231C65.3139 21.2759 64.6154 21.377 64.0166 21.377C61.8212 21.377 60.4241 20.366 60.4241 17.8385V6.86927C61.1227 6.61653 61.9709 6.51543 62.6694 6.51543V10.4583H66.262C66.2121 11.166 66.1622 11.8231 66.0624 12.4297H62.6694V17.5352C62.6694 18.8495 63.3181 19.4055 64.4158 19.4055ZM76.5405 10.6605V21.0737H74.4449L74.3451 19.8099C73.7464 20.7198 72.8981 21.3264 71.4511 21.3264C68.7568 21.3264 66.9106 19.3044 66.9106 15.8165C66.9106 12.177 68.8566 10.0539 72.6487 10.0539C74.1455 10.1044 75.343 10.2561 76.5405 10.6605ZM74.2453 18.6978V12.177C73.7963 12.0759 73.2474 12.0759 72.5988 12.0759C70.2536 12.0759 69.1559 13.5418 69.1559 15.8671C69.1559 17.9902 70.0042 19.5066 72 19.5066C72.948 19.4561 73.6965 19.1528 74.2453 18.6978ZM88.1164 14.0978V21.0737H85.8212V14.5022C85.8212 12.8341 85.2723 12.0759 83.027 12.0759C82.4782 12.0759 81.8794 12.1264 81.2308 12.2275V21.0737H78.9855V10.6605C80.4324 10.3066 82.0291 10.0539 83.0769 10.0539C86.869 10.1044 88.1164 11.5704 88.1164 14.0978ZM99.5426 6.51543V21.0737H97.447L97.3472 19.7594C96.7484 20.7198 95.9002 21.3264 94.4033 21.3264C91.7089 21.3264 89.8628 19.3044 89.8628 15.8165C89.8628 12.177 91.8087 10.0539 95.6008 10.0539C96.1996 10.0539 96.7484 10.1044 97.2973 10.2055V6.76817C97.9958 6.56598 98.7942 6.51543 99.5426 6.51543ZM97.2973 18.6978V12.2781C96.6985 12.177 96.0998 12.0759 95.501 12.0759C93.2557 12.0759 92.2079 13.4913 92.2079 15.8671C92.2079 17.9902 93.0561 19.5066 95.052 19.5066C95.9501 19.4561 96.6985 19.1528 97.2973 18.6978ZM110.919 16.6253H103.684C103.983 18.4956 105.031 19.355 107.077 19.355C108.324 19.355 109.572 19.1022 110.669 18.5462C110.57 19.1528 110.47 19.9616 110.32 20.6187C109.272 21.0737 108.225 21.2759 106.977 21.2759C103.185 21.2759 101.389 19.1528 101.389 15.6143C101.389 12.5308 102.786 10.0539 106.378 10.0539C109.622 10.0539 111.019 12.177 111.019 14.8055C111.019 15.5132 111.019 16.0187 110.919 16.6253ZM103.684 14.7044H108.773C108.773 12.9858 107.875 11.9748 106.328 11.9748C104.682 12.0253 103.834 12.9352 103.684 14.7044ZM118.852 10.2055C118.852 10.9132 118.753 11.722 118.653 12.177C118.104 12.1264 117.605 12.0759 116.956 12.0759C116.407 12.0759 115.859 12.1264 115.31 12.177V21.0737H113.064V10.6605C114.012 10.3066 115.659 10.0539 116.906 10.0539C117.555 10.1044 118.353 10.1044 118.852 10.2055Z" fill="#8094B0"/>
</svg>
