<svg width="157" height="25" viewBox="0 0 157 25" fill="none" xmlns="http://www.w3.org/2000/svg">
<g clip-path="url(#clip0)">
<path d="M24.4101 9.19253L16.3125 8.44151L13.0959 0.972326C12.8707 0.449329 12.1292 0.449329 11.904 0.972326L8.68745 8.44156L0.589857 9.19253C0.0228653 9.24512 -0.206285 9.95034 0.221498 10.3261L6.33116 15.6934L4.54317 23.6268C4.41797 24.1823 5.01788 24.6181 5.50747 24.3274L12.5 20.1753L19.4925 24.3274C19.9821 24.6181 20.5821 24.1823 20.4569 23.6268L18.6688 15.6934L24.7785 10.3261C25.2063 9.95034 24.9771 9.24512 24.4101 9.19253Z" fill="url(#paint0_linear)"/>
<path d="M13.0959 0.972326C12.8707 0.449329 12.1292 0.449329 11.904 0.972326L8.68745 8.44156L0.589856 9.19253C0.0228653 9.24512 -0.206285 9.95034 0.221498 10.3261L6.33115 15.6934L4.54317 23.6268C4.41797 24.1823 5.01787 24.6181 5.50747 24.3274L7.06816 23.4007C7.28418 14.509 11.4155 8.24747 14.6864 4.66549L13.0959 0.972326Z" fill="url(#paint1_linear)"/>
</g>
<g clip-path="url(#clip1)">
<path d="M57.4101 9.19253L49.3125 8.44151L46.0959 0.972326C45.8707 0.449329 45.1292 0.449329 44.904 0.972326L41.6875 8.44156L33.5899 9.19253C33.0229 9.24512 32.7937 9.95034 33.2215 10.3261L39.3312 15.6934L37.5432 23.6268C37.418 24.1823 38.0179 24.6181 38.5075 24.3274L45.5 20.1753L52.4925 24.3274C52.9821 24.6181 53.5821 24.1823 53.4569 23.6268L51.6688 15.6934L57.7785 10.3261C58.2063 9.95034 57.9771 9.24512 57.4101 9.19253Z" fill="url(#paint2_linear)"/>
<path d="M46.0959 0.972326C45.8707 0.449329 45.1292 0.449329 44.904 0.972326L41.6874 8.44156L33.5899 9.19253C33.0229 9.24512 32.7937 9.95034 33.2215 10.3261L39.3312 15.6934L37.5432 23.6268C37.418 24.1823 38.0179 24.6181 38.5075 24.3274L40.0682 23.4007C40.2842 14.509 44.4155 8.24747 47.6864 4.66549L46.0959 0.972326Z" fill="url(#paint3_linear)"/>
</g>
<g clip-path="url(#clip2)">
<path d="M90.4101 9.19253L82.3125 8.44151L79.0959 0.972326C78.8707 0.449329 78.1292 0.449329 77.904 0.972326L74.6875 8.44156L66.5899 9.19253C66.0229 9.24512 65.7937 9.95034 66.2215 10.3261L72.3312 15.6934L70.5432 23.6268C70.418 24.1823 71.0179 24.6181 71.5075 24.3274L78.5 20.1753L85.4925 24.3274C85.9821 24.6181 86.5821 24.1823 86.4569 23.6268L84.6688 15.6934L90.7785 10.3261C91.2063 9.95034 90.9771 9.24512 90.4101 9.19253Z" fill="url(#paint4_linear)"/>
<path d="M79.0959 0.972326C78.8707 0.449329 78.1292 0.449329 77.904 0.972326L74.6874 8.44156L66.5899 9.19253C66.0229 9.24512 65.7937 9.95034 66.2215 10.3261L72.3312 15.6934L70.5432 23.6268C70.418 24.1823 71.0179 24.6181 71.5075 24.3274L73.0682 23.4007C73.2842 14.509 77.4155 8.24747 80.6864 4.66549L79.0959 0.972326Z" fill="url(#paint5_linear)"/>
</g>
<g clip-path="url(#clip3)">
<path d="M123.41 9.19253L115.313 8.44151L112.096 0.972326C111.871 0.449329 111.129 0.449329 110.904 0.972326L107.687 8.44156L99.5899 9.19253C99.0229 9.24512 98.7937 9.95034 99.2215 10.3261L105.331 15.6934L103.543 23.6268C103.418 24.1823 104.018 24.6181 104.507 24.3274L111.5 20.1753L118.493 24.3274C118.982 24.6181 119.582 24.1823 119.457 23.6268L117.669 15.6934L123.778 10.3261C124.206 9.95034 123.977 9.24512 123.41 9.19253Z" fill="url(#paint6_linear)"/>
<path d="M112.096 0.972326C111.871 0.449329 111.129 0.449329 110.904 0.972326L107.687 8.44156L99.5899 9.19253C99.0229 9.24512 98.7937 9.95034 99.2215 10.3261L105.331 15.6934L103.543 23.6268C103.418 24.1823 104.018 24.6181 104.507 24.3274L106.068 23.4007C106.284 14.509 110.416 8.24747 113.686 4.66549L112.096 0.972326Z" fill="url(#paint7_linear)"/>
</g>
<g clip-path="url(#clip4)">
<path d="M156.41 9.19253L148.313 8.44151L145.096 0.972326C144.871 0.449329 144.129 0.449329 143.904 0.972326L140.687 8.44156L132.59 9.19253C132.023 9.24512 131.794 9.95034 132.221 10.3261L138.331 15.6934L136.543 23.6268C136.418 24.1823 137.018 24.6181 137.507 24.3274L144.5 20.1753L151.493 24.3274C151.982 24.6181 152.582 24.1823 152.457 23.6268L150.669 15.6934L156.778 10.3261C157.206 9.95034 156.977 9.24512 156.41 9.19253Z" fill="url(#paint8_linear)"/>
<path d="M145.096 0.972326C144.871 0.449329 144.129 0.449329 143.904 0.972326L140.687 8.44156L132.59 9.19253C132.023 9.24512 131.794 9.95034 132.221 10.3261L138.331 15.6934L136.543 23.6268C136.418 24.1823 137.018 24.6181 137.507 24.3274L139.068 23.4007C139.284 14.509 143.416 8.24747 146.686 4.66549L145.096 0.972326Z" fill="url(#paint9_linear)"/>
</g>
<defs>
<linearGradient id="paint0_linear" x1="0.0982139" y1="0.580079" x2="28.7789" y2="6.6945" gradientUnits="userSpaceOnUse">
<stop stop-color="#E67841"/>
<stop offset="1" stop-color="#FF9F6F"/>
</linearGradient>
<linearGradient id="paint1_linear" x1="0.0576964" y1="0.580079" x2="17.4001" y2="2.75204" gradientUnits="userSpaceOnUse">
<stop stop-color="#E67841"/>
<stop offset="1" stop-color="#FF9F6F"/>
</linearGradient>
<linearGradient id="paint2_linear" x1="33.0982" y1="0.580079" x2="61.7789" y2="6.6945" gradientUnits="userSpaceOnUse">
<stop stop-color="#E67841"/>
<stop offset="1" stop-color="#FF9F6F"/>
</linearGradient>
<linearGradient id="paint3_linear" x1="33.0577" y1="0.580079" x2="50.4001" y2="2.75204" gradientUnits="userSpaceOnUse">
<stop stop-color="#E67841"/>
<stop offset="1" stop-color="#FF9F6F"/>
</linearGradient>
<linearGradient id="paint4_linear" x1="66.0982" y1="0.580079" x2="94.7789" y2="6.6945" gradientUnits="userSpaceOnUse">
<stop stop-color="#E67841"/>
<stop offset="1" stop-color="#FF9F6F"/>
</linearGradient>
<linearGradient id="paint5_linear" x1="66.0577" y1="0.580079" x2="83.4001" y2="2.75204" gradientUnits="userSpaceOnUse">
<stop stop-color="#E67841"/>
<stop offset="1" stop-color="#FF9F6F"/>
</linearGradient>
<linearGradient id="paint6_linear" x1="99.0982" y1="0.580079" x2="127.779" y2="6.6945" gradientUnits="userSpaceOnUse">
<stop stop-color="#E67841"/>
<stop offset="1" stop-color="#FF9F6F"/>
</linearGradient>
<linearGradient id="paint7_linear" x1="99.0577" y1="0.580079" x2="116.4" y2="2.75204" gradientUnits="userSpaceOnUse">
<stop stop-color="#E67841"/>
<stop offset="1" stop-color="#FF9F6F"/>
</linearGradient>
<linearGradient id="paint8_linear" x1="132.098" y1="0.580079" x2="160.779" y2="6.6945" gradientUnits="userSpaceOnUse">
<stop stop-color="#E67841"/>
<stop offset="1" stop-color="#FF9F6F"/>
</linearGradient>
<linearGradient id="paint9_linear" x1="132.058" y1="0.580079" x2="149.4" y2="2.75204" gradientUnits="userSpaceOnUse">
<stop stop-color="#E67841"/>
<stop offset="1" stop-color="#FF9F6F"/>
</linearGradient>
<clipPath id="clip0">
<rect width="25" height="25" fill="white"/>
</clipPath>
<clipPath id="clip1">
<rect width="25" height="25" fill="white" transform="translate(33)"/>
</clipPath>
<clipPath id="clip2">
<rect width="25" height="25" fill="white" transform="translate(66)"/>
</clipPath>
<clipPath id="clip3">
<rect width="25" height="25" fill="white" transform="translate(99)"/>
</clipPath>
<clipPath id="clip4">
<rect width="25" height="25" fill="white" transform="translate(132)"/>
</clipPath>
</defs>
</svg>
