<svg width="24" height="24" viewBox="0 0 24 24" fill="none" xmlns="http://www.w3.org/2000/svg">
<path d="M5.3717 23.5146C5.10876 23.5146 4.84764 23.4326 4.6248 23.2715C4.20969 22.9706 4.01577 22.4535 4.12875 21.9545L5.67273 15.1533L0.436524 10.5612C0.0516271 10.2252 -0.0954101 9.69311 0.0626138 9.20622C0.220638 8.72024 0.65058 8.37618 1.15963 8.32912L8.08777 7.70014L10.8269 1.29C11.0289 0.819039 11.4889 0.514893 11.9999 0.514893C12.511 0.514893 12.9709 0.819039 13.1729 1.2889L15.9121 7.70014L22.8391 8.32912C23.3492 8.37508 23.7792 8.72024 23.9372 9.20622C24.0952 9.69219 23.9491 10.2252 23.5642 10.5612L18.328 15.1524L19.872 21.9534C19.9852 22.4535 19.7911 22.9706 19.3761 23.2705C18.9621 23.5705 18.41 23.5935 17.9741 23.3315L11.9999 19.7614L6.02577 23.3335C5.8238 23.4535 5.59876 23.5146 5.3717 23.5146ZM11.9999 18.2235C12.227 18.2235 12.4518 18.2845 12.654 18.4044L18.2921 21.7765L16.8349 15.3573C16.7309 14.9004 16.886 14.4234 17.2391 14.1143L22.1832 9.77825L15.642 9.18424C15.171 9.14121 14.766 8.84512 14.5819 8.41115L11.9999 2.36192L9.41477 8.41207C9.23276 8.84311 8.82772 9.1392 8.35786 9.18223L1.81571 9.77624L6.75968 14.1123C7.11381 14.4223 7.26872 14.8984 7.1638 15.3563L5.70771 21.7754L11.3458 18.4044C11.5478 18.2845 11.7729 18.2235 11.9999 18.2235ZM8.03485 7.8241C8.03485 7.8241 8.03485 7.8252 8.03375 7.82612L8.03485 7.8241ZM15.963 7.82117L15.9641 7.82319C15.9641 7.82209 15.9641 7.82209 15.963 7.82117Z" fill="#E67943"/>
</svg>
