<svg width="248" height="28" viewBox="0 0 248 28" fill="none" xmlns="http://www.w3.org/2000/svg">
<path d="M11 17.5L19 14L22.5 24.5L19.5 23.5L11 17.5Z" fill="white"/>
<rect x="130.5" y="7" width="18" height="16" fill="white"/>
<rect x="154.5" y="7" width="18" height="16" fill="white"/>
<rect x="179.5" y="7" width="18" height="16" fill="white"/>
<rect x="204.5" y="7" width="18" height="16" fill="white"/>
<rect x="227.5" y="7" width="18" height="16" fill="white"/>
<path d="M17.6126 9.95679H28.5015L14.2607 19.8604L20.4489 18.3207L19.6956 16.0787L23.0472 26.0002L14.2408 19.8604L5.43453 26.0002L8.80631 16.0776L0 9.93778L10.8889 9.95679L14.2607 0.0341797L17.6126 9.95679Z" fill="#00B67A"/>
<path d="M142.903 16.2317L143.312 17.4478L139.957 18.2826L142.903 16.2317Z" fill="#00B67A"/>
<path fill-rule="evenodd" clip-rule="evenodd" d="M150.866 4.01762H128.791V25.1108H150.866V4.01762ZM147.678 12.913H141.774L139.957 7.53314L138.128 12.913L132.225 12.9027L136.999 16.2316L135.171 21.6115L139.946 18.2826L144.72 21.6115L142.903 16.2317L147.678 12.913Z" fill="#00B67A"/>
<path d="M167.186 16.2317L167.595 17.4478L164.24 18.2826L167.186 16.2317Z" fill="#00B67A"/>
<path fill-rule="evenodd" clip-rule="evenodd" d="M175.15 4.01762H153.074V25.1108H175.15V4.01762ZM171.961 12.913H166.057L164.24 7.53314L162.412 12.913L156.508 12.9027L161.283 16.2316L159.455 21.6115L164.229 18.2826L169.004 21.6115L167.186 16.2317L171.961 12.913Z" fill="#00B67A"/>
<path d="M191.47 16.2317L191.878 17.4478L188.523 18.2826L191.47 16.2317Z" fill="#00B67A"/>
<path fill-rule="evenodd" clip-rule="evenodd" d="M199.433 4.01762H177.357V25.1108H199.433V4.01762ZM196.244 12.913H190.341L188.523 7.53314L186.695 12.913L180.791 12.9027L185.566 16.2316L183.738 21.6115L188.513 18.2826L193.287 21.6115L191.47 16.2317L196.244 12.913Z" fill="#00B67A"/>
<path d="M215.753 16.2317L216.162 17.4478L212.807 18.2826L215.753 16.2317Z" fill="#00B67A"/>
<path fill-rule="evenodd" clip-rule="evenodd" d="M223.717 4.01762H201.641V25.1108H223.717V4.01762ZM220.528 12.913H214.624L212.807 7.53314L210.979 12.913L205.075 12.9027L209.849 16.2316L208.021 21.6115L212.796 18.2826L217.571 21.6115L215.753 16.2317L220.528 12.913Z" fill="#00B67A"/>
<path d="M240.037 16.2317L240.445 17.4478L237.09 18.2826L240.037 16.2317Z" fill="#00B67A"/>
<path fill-rule="evenodd" clip-rule="evenodd" d="M248 4.01762H225.924V25.1108H248V4.01762ZM244.811 12.913H238.907L237.09 7.53314L235.262 12.913L229.358 12.9027L234.133 16.2316L232.305 21.6115L237.079 18.2826L241.854 21.6115L240.037 16.2317L244.811 12.913Z" fill="#00B67A"/>
<path d="M31.7786 9.92285H43.8179V12.0708H39.0775V24.1795H36.4793V12.0708H31.7588L31.7786 9.92285ZM43.3022 13.8577H45.5236V15.8536H45.5633C45.6426 15.5685 45.7814 15.3023 45.9798 15.0362C46.1781 14.7701 46.4161 14.523 46.7137 14.3139C46.9913 14.0858 47.3087 13.9147 47.6657 13.7816C48.0029 13.6486 48.3599 13.5725 48.7169 13.5725C48.9946 13.5725 49.1929 13.5916 49.2921 13.5916C49.3912 13.6106 49.5103 13.6296 49.6094 13.6296V15.8156C49.4507 15.7776 49.2722 15.7586 49.0937 15.7395C48.9152 15.7205 48.7566 15.7015 48.578 15.7015C48.1814 15.7015 47.8045 15.7776 47.4475 15.9296C47.0905 16.0817 46.793 16.3098 46.5153 16.5949C46.2575 16.8991 46.0393 17.2603 45.8806 17.6975C45.722 18.1347 45.6426 18.6479 45.6426 19.2182V24.1224H43.2625L43.3022 13.8577ZM58.1777 24.1795V22.7348H58.1381C57.8405 23.267 57.4042 23.6662 56.829 23.9894C56.2538 24.3125 55.6588 24.4646 55.0638 24.4646C53.6556 24.4646 52.6242 24.1414 51.9895 23.4571C51.3548 22.7918 51.0375 21.7653 51.0375 20.4157V13.8577H53.4175V20.1876C53.4175 21.1 53.5961 21.7463 53.9729 22.1075C54.3299 22.4877 54.8456 22.6778 55.5001 22.6778C55.996 22.6778 56.4125 22.6017 56.7497 22.4497C57.0869 22.2976 57.3645 22.1075 57.5629 21.8604C57.781 21.6133 57.9199 21.3091 58.0191 20.967C58.1182 20.6248 58.1579 20.2446 58.1579 19.8455V13.8577H60.538V24.1795H58.1777ZM64.5643 20.8719C64.6436 21.5372 64.9015 21.9935 65.3576 22.2786C65.8138 22.5447 66.3692 22.6778 67.0039 22.6778C67.222 22.6778 67.4799 22.6588 67.7576 22.6207C68.0352 22.5827 68.3129 22.5257 68.5509 22.4307C68.8088 22.3356 69.0071 22.2025 69.1658 22.0125C69.3245 21.8224 69.4038 21.5943 69.384 21.3091C69.3641 21.024 69.2649 20.7769 69.0468 20.5868C68.8286 20.3967 68.5708 20.2636 68.2534 20.1306C67.9361 20.0165 67.5592 19.9215 67.1427 19.8455C66.7262 19.7694 66.3097 19.6744 65.8733 19.5793C65.437 19.4843 65.0006 19.3702 64.5841 19.2372C64.1676 19.1041 63.8106 18.933 63.4734 18.6859C63.1561 18.4578 62.8784 18.1727 62.6999 17.8115C62.5015 17.4503 62.4024 17.0321 62.4024 16.4999C62.4024 15.9296 62.5412 15.4734 62.8387 15.0932C63.1164 14.7131 63.4932 14.4089 63.9296 14.1808C64.3659 13.9527 64.8618 13.7816 65.3973 13.6866C65.9328 13.5916 66.4485 13.5535 66.9245 13.5535C67.4799 13.5535 68.0154 13.6106 68.5113 13.7246C69.0071 13.8387 69.4831 14.0097 69.8798 14.2759C70.2963 14.523 70.6335 14.8651 70.8913 15.2643C71.169 15.6635 71.3277 16.1577 71.407 16.728H68.9278C68.8088 16.1768 68.5509 15.8156 68.1542 15.6255C67.7377 15.4354 67.2815 15.3404 66.746 15.3404C66.5874 15.3404 66.3692 15.3594 66.151 15.3784C65.913 15.4164 65.7147 15.4544 65.4965 15.5305C65.2981 15.6065 65.1196 15.7205 64.9808 15.8536C64.842 15.9867 64.7626 16.1767 64.7626 16.4049C64.7626 16.69 64.8618 16.8991 65.0601 17.0702C65.2585 17.2412 65.5163 17.3743 65.8535 17.5074C66.1708 17.6214 66.5477 17.7165 66.9642 17.7925C67.3807 17.8685 67.8171 17.9636 68.2534 18.0586C68.6898 18.1537 69.1063 18.2677 69.5228 18.4008C69.9393 18.5338 70.3162 18.7049 70.6335 18.952C70.9508 19.1801 71.2285 19.4653 71.4269 19.8074C71.6252 20.1496 71.7244 20.5868 71.7244 21.081C71.7244 21.6893 71.5855 22.2025 71.288 22.6398C70.9905 23.0579 70.6137 23.4191 70.1575 23.6852C69.7013 23.9514 69.1658 24.1415 68.6104 24.2745C68.0352 24.3886 67.4799 24.4646 66.9245 24.4646C66.2502 24.4646 65.6155 24.3886 65.0403 24.2365C64.4651 24.0844 63.9494 23.8563 63.5329 23.5712C63.1164 23.267 62.7792 22.9059 62.5412 22.4497C62.3032 22.0125 62.1644 21.4802 62.1445 20.8529H64.5444V20.8719H64.5643ZM72.3987 13.8577H74.2036V10.7402H76.5837V13.8387H78.7258V15.5305H76.5837V21.043C76.5837 21.2901 76.6035 21.4802 76.6234 21.6703C76.6432 21.8414 76.7027 21.9935 76.7622 22.1075C76.8415 22.2216 76.9606 22.3166 77.0994 22.3736C77.2581 22.4307 77.4564 22.4687 77.7341 22.4687C77.8927 22.4687 78.0713 22.4687 78.2299 22.4497C78.3886 22.4307 78.5671 22.4116 78.7258 22.3736V24.1415C78.4679 24.1795 78.2101 24.1985 77.9523 24.2175C77.6944 24.2555 77.4564 24.2555 77.1787 24.2555C76.544 24.2555 76.0482 24.1985 75.6713 24.0844C75.2945 23.9704 74.997 23.7993 74.7788 23.5902C74.5606 23.3621 74.4218 23.096 74.3425 22.7728C74.2631 22.4497 74.2235 22.0505 74.2036 21.6323V15.5495H72.3987V13.8197V13.8577ZM80.3918 13.8577H82.6331V15.2643H82.6728C83.0099 14.656 83.4661 14.2379 84.0611 13.9717C84.6562 13.7056 85.2909 13.5725 86.0049 13.5725C86.8577 13.5725 87.5916 13.7056 88.2263 14.0097C88.861 14.2949 89.3767 14.6751 89.7932 15.1883C90.2097 15.6825 90.527 16.2718 90.7254 16.9371C90.9237 17.6024 91.0427 18.3247 91.0427 19.0661C91.0427 19.7694 90.9435 20.4347 90.765 21.081C90.5667 21.7273 90.289 22.3166 89.9122 22.8108C89.5353 23.3051 89.0593 23.7042 88.4643 24.0084C87.8693 24.3125 87.1949 24.4646 86.4016 24.4646C86.0644 24.4646 85.7074 24.4266 85.3702 24.3696C85.033 24.3125 84.6958 24.2175 84.3785 24.0844C84.0611 23.9514 83.7636 23.7803 83.5058 23.5712C83.2281 23.3621 83.0099 23.115 82.8314 22.8489H82.7918V28.0002H80.4117V13.8577H80.3918ZM88.7023 19.0281C88.7023 18.5719 88.6428 18.1157 88.504 17.6784C88.385 17.2412 88.1866 16.8611 87.9288 16.5189C87.6709 16.1768 87.3536 15.9106 86.9966 15.7015C86.6197 15.4924 86.1834 15.3974 85.7074 15.3974C84.7157 15.3974 83.962 15.7205 83.4463 16.3859C82.9504 17.0512 82.6926 17.9446 82.6926 19.0471C82.6926 19.5793 82.7521 20.0545 82.8909 20.4918C83.0298 20.929 83.2083 21.3091 83.4859 21.6323C83.7438 21.9554 84.0611 22.2025 84.438 22.3926C84.8148 22.5827 85.2313 22.6778 85.7272 22.6778C86.2825 22.6778 86.7189 22.5637 87.0957 22.3546C87.4726 22.1455 87.7701 21.8604 88.0279 21.5372C88.266 21.1951 88.4445 20.8149 88.5436 20.3777C88.6428 19.9215 88.7023 19.4843 88.7023 19.0281ZM92.8873 9.92285H95.2674V12.0708H92.8873V9.92285ZM92.8873 13.8577H95.2674V24.1795H92.8873V13.8577ZM97.3896 9.92285H99.7697V24.1795H97.3896V9.92285ZM107.029 24.4646C106.176 24.4646 105.403 24.3315 104.728 24.0464C104.054 23.7613 103.498 23.4001 103.022 22.9249C102.566 22.4497 102.209 21.8604 101.971 21.1951C101.733 20.5298 101.594 19.7884 101.594 19.0091C101.594 18.2297 101.713 17.5074 101.971 16.8421C102.209 16.1768 102.566 15.6065 103.022 15.1123C103.479 14.637 104.054 14.2569 104.728 13.9907C105.403 13.7246 106.176 13.5725 107.029 13.5725C107.882 13.5725 108.655 13.7056 109.33 13.9907C110.004 14.2569 110.559 14.637 111.035 15.1123C111.492 15.5875 111.849 16.1768 112.087 16.8421C112.325 17.5074 112.463 18.2297 112.463 19.0091C112.463 19.8074 112.344 20.5298 112.087 21.1951C111.829 21.8604 111.492 22.4307 111.035 22.9249C110.579 23.4001 110.004 23.7803 109.33 24.0464C108.655 24.3125 107.902 24.4646 107.029 24.4646ZM107.029 22.6588C107.545 22.6588 108.021 22.5447 108.397 22.3356C108.794 22.1265 109.092 21.8414 109.35 21.4992C109.607 21.1571 109.786 20.7579 109.905 20.3397C110.024 19.9025 110.083 19.4653 110.083 19.0091C110.083 18.5719 110.024 18.1347 109.905 17.6975C109.786 17.2603 109.607 16.8801 109.35 16.5379C109.092 16.1958 108.774 15.9296 108.397 15.7205C108.001 15.5114 107.545 15.3974 107.029 15.3974C106.513 15.3974 106.037 15.5114 105.66 15.7205C105.264 15.9296 104.966 16.2148 104.708 16.5379C104.451 16.8801 104.272 17.2603 104.153 17.6975C104.034 18.1347 103.975 18.5719 103.975 19.0091C103.975 19.4653 104.034 19.9025 104.153 20.3397C104.272 20.7769 104.451 21.1571 104.708 21.4992C104.966 21.8414 105.284 22.1265 105.66 22.3356C106.057 22.5637 106.513 22.6588 107.029 22.6588ZM113.177 13.8577H114.982V10.7402H117.362V13.8387H119.505V15.5305H117.362V21.043C117.362 21.2901 117.382 21.4802 117.402 21.6703C117.422 21.8414 117.481 21.9935 117.541 22.1075C117.62 22.2216 117.739 22.3166 117.878 22.3736C118.037 22.4307 118.235 22.4687 118.513 22.4687C118.672 22.4687 118.85 22.4687 119.009 22.4497C119.167 22.4307 119.346 22.4116 119.505 22.3736V24.1415C119.247 24.1795 118.989 24.1985 118.731 24.2175C118.473 24.2555 118.235 24.2555 117.958 24.2555C117.323 24.2555 116.827 24.1985 116.45 24.0844C116.073 23.9704 115.776 23.7993 115.558 23.5902C115.339 23.3621 115.201 23.096 115.121 22.7728C115.042 22.4497 115.002 22.0505 114.982 21.6323V15.5495H113.177V13.8197V13.8577Z" fill="#191919"/>
</svg>
